<svg xmlns="http://www.w3.org/2000/svg" width="156" height="40" fill="none"><g clip-path="url(#a)"><path fill="#378E73" d="M56.52 31.265q-2.044 0-3.702-.651a7.7 7.7 0 0 1-2.812-2.014q-1.155-1.332-1.777-3.286-.622-1.984-.622-4.59t.622-4.618q.622-2.043 1.777-3.405a7.7 7.7 0 0 1 2.812-2.102q1.66-.71 3.701-.71 2.783 0 4.619 1.184 1.835 1.185 2.93 3.582l-3.345 1.777q-.444-1.392-1.45-2.22-1.008-.86-2.754-.86-2.19 0-3.493 1.481-1.274 1.48-1.274 4.145v3.257q0 2.694 1.273 4.145 1.304 1.42 3.494 1.42 1.747 0 2.842-.947a5.4 5.4 0 0 0 1.629-2.338l3.168 1.865q-1.125 2.31-2.99 3.612-1.866 1.273-4.649 1.273M72.803 31.265q-1.658 0-2.99-.562a6.3 6.3 0 0 1-2.25-1.629q-.919-1.066-1.422-2.546-.504-1.51-.503-3.375 0-1.866.503-3.346.504-1.48 1.421-2.516a6.34 6.34 0 0 1 2.25-1.629q1.333-.562 2.99-.562 1.66 0 2.99.562a6 6 0 0 1 2.251 1.629q.948 1.036 1.45 2.516.504 1.48.504 3.346 0 1.864-.503 3.375-.504 1.48-1.451 2.546a6 6 0 0 1-2.25 1.628q-1.332.563-2.99.563m0-3.05q1.51 0 2.368-.917.86-.918.859-2.694v-2.872q0-1.747-.859-2.665-.858-.918-2.368-.918-1.48 0-2.34.918-.858.918-.858 2.665v2.872q0 1.776.859 2.694.858.918 2.339.918M84.645 13.205q-1.185 0-1.717-.533-.503-.533-.503-1.362v-.592q0-.83.503-1.362.533-.533 1.717-.533 1.155 0 1.688.533t.533 1.362v.592q0 .83-.533 1.362t-1.688.533m-1.894 2.25h3.79V30.91h-3.79zM90.33 30.91V15.455h3.79v2.576h.148q.475-1.244 1.48-2.073 1.036-.858 2.842-.858 2.398 0 3.672 1.569 1.273 1.569 1.273 4.47v9.77h-3.79v-9.385q0-1.658-.592-2.487-.592-.828-1.954-.829-.593 0-1.155.178-.532.149-.977.474a2.34 2.34 0 0 0-.68.77q-.267.443-.267 1.065V30.91zM112.21 31.265q-2.221 0-3.731-.74a8.8 8.8 0 0 1-2.665-2.102l2.31-2.25q.858.976 1.865 1.54 1.036.561 2.369.562 1.362 0 1.954-.474.621-.474.621-1.303 0-.681-.444-1.065-.415-.415-1.45-.563l-1.54-.207q-2.517-.325-3.849-1.422-1.302-1.125-1.303-3.256 0-1.125.415-2.014a4.14 4.14 0 0 1 1.184-1.54 5.1 5.1 0 0 1 1.836-.976q1.095-.355 2.428-.355 1.125 0 1.983.177a6.3 6.3 0 0 1 1.599.474q.71.296 1.303.77.591.444 1.154 1.006l-2.22 2.22a5.9 5.9 0 0 0-1.629-1.183 4.6 4.6 0 0 0-2.072-.474q-1.243 0-1.806.444a1.43 1.43 0 0 0-.533 1.155q0 .77.444 1.184.474.385 1.569.563l1.569.207q5.004.71 5.004 4.56 0 1.125-.474 2.072a4.7 4.7 0 0 1-1.273 1.599q-.828.651-2.013 1.036-1.155.355-2.605.355M130.566 28.334h-.148q-.207.592-.562 1.125a3.7 3.7 0 0 1-.859.918q-.503.415-1.243.651-.711.237-1.658.237-2.399 0-3.672-1.569t-1.273-4.47v-9.77h3.79v9.385q0 1.597.622 2.457.622.83 1.983.829.564 0 1.096-.148.563-.148.977-.444.414-.326.681-.77.266-.474.266-1.096V15.455h3.79V30.91h-3.79zM141.935 30.91q-1.954 0-2.872-.977t-.917-2.753V9h3.789v18.89h2.043v3.02zM150.936 30.91q-1.955 0-2.99-1.006-1.007-1.037-1.007-2.931v-8.498h-2.28v-3.02h1.184q.86 0 1.155-.384.326-.415.326-1.214v-2.635h3.405v4.234h3.168v3.02h-3.168v9.414h2.931v3.02z"/><path fill="url(#b)" d="M13.692 0h26.971v26.971A13.03 13.03 0 0 1 27.634 40H.664V13.029A13.03 13.03 0 0 1 13.691 0"/><path fill="#fff" d="m32.266 15.74-2.675 1.225-1.877.86-.084.038-2.581 1.166q-.001-.015-.008-.03a4.3 4.3 0 0 0-.86-1.733l-.238-.521 2.576-1.18 1.905-.874 2.697-1.236q.225.35.419.716l.705 1.537zM32.702 22.805a12.2 12.2 0 0 1-.858 2.446l-8.364-1.428.078-.461a4.3 4.3 0 0 0 1.34-1.888zM17.625 24.136l-3.379 2.393-2.415 1.71a12.2 12.2 0 0 1-1.52-2.054l2.403-1.703 1.689-1.196 1.746-1.236zM17.948 13.626l-1.045 2.331-1.53-.685-1.937-.868-2.728-1.223a12.2 12.2 0 0 1 1.72-2.03l2.976 1.334 2.275 1.02z"/><path fill="#fff" d="M29.806 22.31a9.272 9.272 0 0 1-17.092 2.175l-2.402 1.703a12.195 12.195 0 0 0 22.39-3.383zM15.403 12.484a9.278 9.278 0 0 1 14.188 4.482l2.675-1.225-.015-.037-.704-1.538a13 13 0 0 0-.419-.715 12.207 12.207 0 0 0-20.415-.27l2.728 1.222a9.3 9.3 0 0 1 1.962-1.919M11.729 18.228q.154-.79.44-1.542l-2.679-1.2a12.24 12.24 0 0 0-.26 8.312l2.542-1.8a9.25 9.25 0 0 1-.043-3.77"/><path fill="#fff" d="m29.458 16.608-1.844.927-.08.041-2.53 1.27M16.027 22.115l-1.633 1.156a7.2 7.2 0 0 1-.753-2.594l.91-.645zM17.255 16.164l-1.045 2.332-2.164-.973a7.2 7.2 0 0 1 1.296-2.22z"/><path fill="#fff" d="M27.774 21.965a7.217 7.217 0 0 1-14.113-2.818 7.2 7.2 0 0 1 1.682-3.84l.031-.034a7.221 7.221 0 0 1 12.34 2.555l-.084.037-2.581 1.165q-.001-.015-.008-.03a4.333 4.333 0 1 0-.141 2.477z"/></g><defs><linearGradient id="b" x1="1.303" x2="59.852" y1=".998" y2="58.463" gradientUnits="userSpaceOnUse"><stop stop-color="#3B916F"/><stop offset="1" stop-color="#096AA5"/></linearGradient><clipPath id="a"><path fill="#fff" d="M.663 0h155.07v40H.662z"/></clipPath></defs></svg>