<svg xmlns="http://www.w3.org/2000/svg" width="140" height="36" fill="none" viewBox="0 0 130 32"><g transform="translate(-36 -35)"><mask id="a" width="92" height="18" x="69" y="42" maskUnits="userSpaceOnUse" style="mask-type:luminance"><path fill="#fff" d="M160.798 42.926H69.735v16.27h91.063z"/></mask><g mask="url(#a)"><path fill="#0052FF" d="M88.11 47.479c-3.299 0-5.889 2.509-5.889 5.868s2.53 5.848 5.889 5.848c3.38 0 5.929-2.53 5.929-5.868.02-3.319-2.51-5.848-5.93-5.848m.02 9.288c-1.882 0-3.258-1.457-3.258-3.42 0-1.983 1.356-3.44 3.238-3.44 1.902 0 3.278 1.477 3.278 3.44.02 1.963-1.376 3.42-3.258 3.42m6.637-6.739h1.64v8.945h2.63V47.68h-4.27zm-19.163-.121c1.376 0 2.469.85 2.894 2.125h2.772c-.486-2.732-2.732-4.553-5.646-4.553-3.298 0-5.889 2.509-5.889 5.868s2.53 5.848 5.89 5.848c2.852 0 5.119-1.841 5.625-4.573h-2.752c-.385 1.275-1.498 2.145-2.874 2.145-1.902 0-3.238-1.457-3.238-3.42 0-1.983 1.316-3.44 3.218-3.44m69.106 2.347-1.922-.283c-.911-.121-1.579-.445-1.579-1.153 0-.79.85-1.174 2.024-1.174 1.275 0 2.084.546 2.266 1.437h2.55c-.283-2.267-2.044-3.602-4.735-3.602-2.773 0-4.614 1.416-4.614 3.42 0 1.922 1.214 3.035 3.642 3.379l1.923.283c.951.122 1.477.506 1.477 1.194 0 .89-.911 1.275-2.185 1.275-1.559 0-2.429-.627-2.57-1.599h-2.591c.243 2.206 1.963 3.764 5.12 3.764 2.874 0 4.776-1.315 4.776-3.561-.02-2.004-1.396-3.056-3.582-3.38m-46.988-9.207c-.971 0-1.68.708-1.68 1.66 0 .95.729 1.659 1.68 1.659.971 0 1.68-.709 1.68-1.66 0-.95-.709-1.659-1.68-1.659m38.59 8.52c0-2.45-1.497-4.088-4.634-4.088-2.975 0-4.634 1.497-4.978 3.824h2.61c.122-.89.83-1.639 2.328-1.639 1.335 0 2.003.587 2.003 1.316 0 .93-1.214 1.173-2.691 1.335-2.024.223-4.513.91-4.513 3.541 0 2.024 1.518 3.34 3.926 3.34 1.882 0 3.076-.79 3.662-2.024.081 1.113.911 1.841 2.085 1.841h1.538v-2.327h-1.336zm-2.59 2.832c0 1.498-1.315 2.61-2.914 2.61-.992 0-1.821-.424-1.821-1.294 0-1.113 1.335-1.417 2.57-1.558 1.173-.102 1.841-.365 2.165-.87zm-13.963-6.92c-1.477 0-2.691.607-3.562 1.639v-6.172h-2.63v16.047h2.59v-1.477c.87 1.072 2.125 1.7 3.622 1.7 3.157 0 5.545-2.49 5.545-5.849-.02-3.379-2.449-5.888-5.565-5.888m-.385 9.288c-1.881 0-3.258-1.457-3.258-3.42s1.397-3.44 3.279-3.44c1.902 0 3.237 1.457 3.237 3.44 0 1.963-1.376 3.42-3.258 3.42m-12.101-9.288c-1.7 0-2.833.708-3.48 1.68V47.7h-2.611v11.292h2.631v-6.132c0-1.72 1.093-2.954 2.712-2.954 1.517 0 2.448 1.073 2.448 2.61v6.456h2.631v-6.658c.02-2.833-1.457-4.836-4.331-4.836m53.525 5.504c0-3.238-2.368-5.504-5.545-5.504-3.379 0-5.848 2.53-5.848 5.868 0 3.521 2.651 5.848 5.889 5.848 2.731 0 4.876-1.618 5.423-3.905h-2.732c-.385 1.012-1.356 1.578-2.651 1.578-1.68 0-2.954-1.052-3.238-2.873h8.702zm-8.54-.87c.425-1.579 1.599-2.327 2.955-2.327 1.497 0 2.63.85 2.893 2.327z"/></g><path fill="#0052FF" d="M53 39c6.637 0 12 5.383 12 12 0 6.637-5.383 12-12 12-6.637 0-12-5.383-12-12 0-6.637 5.363-12 12-12"/><path fill="#fff" d="M53 55.209a4.227 4.227 0 0 1-4.23-4.23A4.215 4.215 0 0 1 53 46.75a4.2 4.2 0 0 1 4.148 3.521h4.25c-.364-4.33-3.987-7.73-8.398-7.73-4.654 0-8.438 3.784-8.438 8.439 0 4.654 3.784 8.438 8.438 8.438 4.432 0 8.054-3.4 8.398-7.73h-4.25A4.2 4.2 0 0 1 53 55.208"/></g></svg>