<svg xmlns="http://www.w3.org/2000/svg" width="345" height="400" fill="none"><circle cx="180.306" cy="221.999" r="164.486" fill="#fff"/><mask id="a" width="330" height="330" x="15" y="57" maskUnits="userSpaceOnUse" style="mask-type:alpha"><circle cx="180.306" cy="222.004" r="164.486" fill="#fff"/></mask><g mask="url(#a)"><circle cx="180.306" cy="222.004" r="164.486" fill="#FFB685"/><path fill="#F9F9F9" d="M133.872 390.721c-.676 10.278-6.306 43.6-30.733 42.487-9.327-.425-11.766-5.014-21.915-7.04-2.765-.579-3.085-4.368-.463-5.418 4.724-2.297 9.436-.924 14.549.251 20.033 4.606 24.726-21.502 25.885-43.944"/><path fill="#001F54" d="M104.313 435.415c10.682 0 19.327-6.277 25.059-18.228 5.448-11.357 6.511-23.91 6.669-26.31l-4.324-.285c-.112 1.701-3.049 41.633-28.473 40.465-4.63-.21-7.402-1.547-10.61-3.092-2.85-1.374-6.08-2.929-10.98-3.907-.308-.064-.489-.264-.517-.59-.02-.228.04-.534.435-.693q.07-.029.14-.063c3.687-1.79 7.535-.89 11.99.153l1.125.263c5.763 1.323 10.784.41 14.925-2.714 7.968-6.014 12.419-20.155 13.61-43.232l-4.328-.223c-1.105 21.416-5.107 34.873-11.893 39.996-3.114 2.351-6.824 2.987-11.343 1.949l-1.109-.259c-4.798-1.123-9.76-2.284-14.808.14a4.99 4.99 0 0 0-3.063 5.061 4.97 4.97 0 0 0 3.966 4.456c4.38.874 7.22 2.244 9.966 3.566 3.486 1.68 6.779 3.267 12.294 3.518q.638.03 1.268.029z"/><path fill="#F9F9F9" d="m215.989 286.875 21.068 88.584 7.099 29.865c7.944 5.778 22.932 7.165 30.334-.722 18.013-2.296 17.522-23.104 5.901-48.42-6.537-14.25-16.597-29.923-28.861-44.526-7.006-8.35-14.742-16.351-22.954-23.531l-6.146-.614-6.442-.636z"/><path fill="#5F5F82" d="m237.055 375.464 1.683 7.086 5.417 22.78c7.944 5.778 22.931 7.165 30.334-.722 6.731-.859 10.877-4.305 12.828-9.599 3.265-8.875.354-22.96-6.927-38.82-5.128-1.033-10.465-.997-15.528.195a32.7 32.7 0 0 0-6.16 2.103c-3.237 1.473-6.234 3.43-9.101 5.524-.195.145-.39.282-.577.427-4.362 3.236-8.479 6.89-11.967 11.029z"/><path fill="#E5E5E5" d="M222.437 287.518a173 173 0 0 0 5.662 12.878c.397.808.817 1.632 1.496 2.224.627.542 1.422.838 2.195 1.127 6.645 2.42 13.535 4.63 19.746 7.916-7.006-8.35-14.741-16.351-22.954-23.531z"/><path fill="#001F54" d="m238.74 382.533 5.417 22.78c7.944 5.778 22.932 7.165 30.335-.722 6.731-.859 10.877-4.304 12.827-9.598-4.152 2.578-9.569 2.997-14.062 1.09-4.543-1.935-8.024-6.196-9.006-11.036-.361-1.755-.405-3.597.057-5.33.599-2.253 2.015-4.218 2.715-6.443.947-2.968.564-6.189-.057-9.245a60.348 60.348 0 0 0-8.112-20.143c-.035 1.98-.845 3.849-1.69 5.634-2.42 5.122-5.243 10.025-8.14 14.9-3.539 5.987-7.18 11.917-10.285 18.115z" opacity=".2"/><path fill="#001F54" d="M259.854 412.251c5.891 0 11.666-1.728 15.67-5.611 7.251-1.152 12.152-5.286 14.198-11.992 7.04-23.088-21.423-74.638-59.717-108.154a2.17 2.17 0 0 0-1.214-.526l-12.585-1.251a2.167 2.167 0 0 0-2.323 2.658l28.168 118.449c.12.504.416.947.833 1.251 4.522 3.288 10.809 5.177 16.97 5.177zM227.67 290.21c36.275 31.99 64.37 81.976 57.907 103.174-1.626 5.332-5.341 8.297-11.357 9.065-.499.064-.96.299-1.305.666-6.241 6.647-19.284 5.909-26.838.898l-27.272-114.685 8.866.882z"/><path fill="#001F54" d="M278.4 369.646c-8.086-.939-17.907 3.151-20.437 11.63-2.215 6.609 1.439 14.22 7.88 16.678a14.5 14.5 0 0 0 6.017 1.07.594.594 0 0 0 .217-1.134c-3.434-1.575-6.293-3.676-7.896-6.394-4.667-8.067 1.548-15.4 9.17-18.567 1.644-.777 3.413-1.339 5.215-2.008.647-.221.518-1.228-.166-1.275"/><path fill="#F9F9F9" d="M127.022 436.316c.123 5.424.506 10.408 1.279 14.763.412 2.376.947 4.565 1.61 6.537 1.834 5.454 6.984 9.1 12.74 9.1h32.285c1.409 0 2.817-.325 4.01-1.076 2.072-1.308 3.278-3.474 3.661-6.075.383-2.622-.057-5.676-1.285-8.739.165-.447.339-.896.506-1.336 4.817-12.762 9.527-23.632 14.026-30.912a50 50 0 0 1 2.08-3.142c2.614.202 5.15.332 7.605.405 27.792.801 45.834-6.579 53.447-23.849a41 41 0 0 0 1.553-4.124c1.343-4.196 2.16-8.897 2.448-14.113.628-11.304-1.415-22.585-5.46-33.166-4.239-11.093-10.27-21.748-17.731-32.054a193 193 0 0 0-7.555-9.743l-9.389-13-26.16-2.94-44.62-5.005c-3.012 10.712-6.016 21.429-9.028 32.14l-2.189 13.802-6.377 40.15-5.879 37.051c-.997 12.48-1.798 24.729-1.574 35.325z"/><path fill="#D3D3D3" fill-opacity=".4" d="M127.025 436.313c.123 5.424.506 10.408 1.279 14.764q.193 1.107.418 2.159c.152.708.318 1.401.498 2.066l.065.224c.086.346.187.687.288 1.018.108.368.225.722.339 1.068 1.835 5.454 6.985 9.1 12.741 9.1h32.285c1.409 0 2.816-.325 4.009-1.076 2.072-1.308 3.279-3.474 3.662-6.075-6.436 2.904-13.601 4.182-20.621 3.496-6.066-.599-12.588-3.084-15.21-8.587-.657-1.372-1.018-2.824-1.17-4.311-.317-2.962.166-6.075.758-9.028a143 143 0 0 1 3.908-15.067c.954-3.012 2.066-6.074 4.175-8.435 4.63-5.172 12.596-5.474 19.464-4.457 7.462 1.105 14.698 3.279 21.942 5.403a51 51 0 0 1 2.08-3.142c2.614.203 5.15.333 7.606.405 27.791.802 45.833-6.579 53.447-23.848-14.986 11.317-33.931 17.536-52.435 14.965-22.505-3.12-43.147-20.699-46.824-43.118-3.323-20.332 7.858-41.767 25.625-52.197 16.243-9.541 36.936-10.133 54.443-3.105a193 193 0 0 0-7.555-9.743l-9.389-13-26.16-2.94-44.62-5.005c-3.012 10.712-6.016 21.429-9.028 32.14l-2.188 13.802-6.377 40.15-5.879 37.051c-.997 12.48-1.799 24.729-1.575 35.325z"/><path fill="#FFD8BE" d="M191 394.697a29.1 29.1 0 0 0 2.954 8.955c2.622 5.005 6.652 9.18 11.577 12.185 1.359.035 2.695.057 4.01.057.636 0 1.257-.007 1.878-.015.224 0 .455-.007.678-.015q.152.002.304-.007c.557-.007 1.105-.028 1.647-.043.079-.007.165-.007.245-.016a94.608 94.608 0 0 0 4.485-.266 85 85 0 0 0 6.226-.729c.015 0 .036-.007.051-.007a73 73 0 0 0 1.95-.326c.427-.079.846-.158 1.264-.246l.209-.044c.254-.043.507-.101.751-.158.029 0 .051-.007.08-.015a57 57 0 0 0 3.034-.729c.165-.044.332-.095.498-.137a50 50 0 0 0 1.64-.484c.57-.174 1.134-.355 1.682-.542.022-.015.036-.022.057-.022a47 47 0 0 0 4.847-1.972q.042-.023.086-.044a37 37 0 0 0 1.48-.738q.618-.326 1.213-.664.143-.075.275-.159c.478-.275.938-.557 1.394-.845q.683-.434 1.343-.888c.015-.015.036-.022.051-.036q.65-.453 1.279-.938c.028-.015.05-.035.079-.057a47 47 0 0 0 1.178-.947c.405-.339.801-.693 1.198-1.055q.553-.509 1.077-1.039a1 1 0 0 0 .129-.13c.297-.295.578-.599.859-.903.095-.094.181-.195.267-.295a28 28 0 0 0 1.033-1.214 33 33 0 0 0 1.885-2.549c.224-.339.447-.687.665-1.033.086-.145.18-.289.259-.434q.282-.455.542-.931c.095-.159.181-.326.275-.491q.033-.055.066-.123c.165-.311.332-.628.491-.954.086-.173.173-.346.253-.519a23 23 0 0 0 .526-1.141l.007-.007a41 41 0 0 0 1.553-4.124 28.5 28.5 0 0 0-.346-4.038c-2.724-17.298-20.411-28.89-39.515-25.893-19.11 3.005-32.393 19.464-29.669 36.762z"/><path fill="#66142E" d="m252.221 346.995-.14-.049q.012-.066.023-.132z" opacity=".3"/><path fill="#5F5F82" d="M127.016 436.305q1.269.084 2.528.072c5.403-.028 10.921-1.004 15.543-3.798a19 19 0 0 0 4.247-3.488c2.435-2.644 4.088-5.959 4.333-9.512.022-.354.036-.701.036-1.055.022-2.224-.282-4.47.368-6.579 1.155-3.821 5.011-6.117 7.129-9.49 1.907-3.034 2.303-6.839 1.654-10.358-.65-3.516-2.275-6.788-4.16-9.822a56.8 56.8 0 0 0-19.623-19.01l-.744.224c-.707-.614-1.791-.339-2.673-.015-.397.145-.795.304-1.185.455l-5.879 37.051c-.997 12.48-1.798 24.729-1.574 35.325"/><path fill="#001F54" d="M127.017 436.306q1.269.084 2.528.072c5.403-.028 10.921-1.004 15.543-3.798a19 19 0 0 0 4.247-3.488q.455-1.516.931-3.034c.837-2.644 1.791-5.324 3.438-7.533.022-2.224-.282-4.47.368-6.579 1.155-3.821 5.011-6.117 7.129-9.49 1.907-3.034 2.303-6.84 1.654-10.358-.65-3.516-2.275-6.788-4.16-9.822a56.8 56.8 0 0 0-19.623-19.01l-.744.224c-.707-.614-1.791-.339-2.673-.015-.397.145-.795.304-1.185.455l-5.879 37.051c-.997 12.48-1.798 24.729-1.574 35.325" opacity=".2"/><path fill="#001F54" d="M222.912 285.239c-11.642-2.545-23.44-3.857-35.24-5.314-10.259-1.297-24.955-3.002-35.363-4.212a2.13 2.13 0 0 0-2.303 1.552l-9.045 32.136c-.203.254-14.404 91.079-14.544 91.413-.827 10.519-1.591 21.073-1.617 31.724.014 7.667.371 15.572 2.235 23.106.513 1.712.969 3.555 1.869 5.129 2.355 4.413 6.965 7.486 11.927 8.028 1.955.209 5.186.086 7.162.118 5.295.007 18.595 0 23.7.005h1.975c4.305.334 8.286-1.591 10.126-5.637 1.959-4.248 1.181-9.208-.414-13.288l.017 1.6c4.637-11.945 9.097-24.263 16.316-34.881l-1.946.904c3.612.252 7.234.432 10.87.457 22.769.257 46.973-5.734 54.116-30.288 8.874-32.468-8.308-66.056-29.949-89.468a.735.735 0 0 0-1.13.934c12.353 17.205 24.108 35.424 28.109 56.407 2.289 13.317 2.037 28.446-5.248 40.12-9.637 15.123-29.206 18.008-45.871 17.915-3.527-.027-7.062-.208-10.594-.457a2.17 2.17 0 0 0-1.92.906c-1.992 2.795-3.67 5.703-5.22 8.653-4.558 8.796-8.196 18.022-11.687 27.246a2.2 2.2 0 0 0 .018 1.601c.862 2.201 1.372 4.548 1.239 6.749-.123 2.204-.976 4.127-2.481 5.179-1.663 1.345-4.25.826-6.326.929-5.057.011-18.483-.003-23.7.005-1.956-.075-5.679.177-7.469-.209-4.112-.744-7.629-3.931-8.704-7.98-.118-.462-.409-1.325-.528-1.784-3.86-17.204-1.58-36.367-.537-53.203.181.283 14.434-92.022 14.366-90.762l9.011-32.145-2.303 1.551c17.177 1.945 36.036 3.836 53.141 5.465 5.918.481 11.849.852 17.817.9a.557.557 0 0 0 .125-1.101z"/><path fill="#F9F9F9" d="M101.979 415.537c5.612 1.589 11.202 1.669 15.824-.311 22.614 5.172 40.627-6.955 31.511-25.741 11.267-5.324 10.986-21.798-6.132-22.563-.028-.26-.05-.535-.079-.801-.196-2.499-.108-5.144.209-7.902.687-6.146 2.543-12.879 5.013-19.927l2.608-5.533 19.768-42.007-21.118-7.431c-5.626 4.716-11.232 9.556-16.699 14.51a424 424 0 0 0-10.776 10.069c-13.145 12.718-24.903 25.922-33.369 39.087-4.81 7.491-8.565 14.966-10.892 22.325-6.167 19.501 4.45 40.67 24.13 46.223z"/><path fill="#5F5F82" d="M101.978 415.539c5.612 1.589 11.202 1.668 15.824-.311 22.614 5.172 40.627-6.955 31.511-25.741 11.267-5.324 10.986-21.798-6.132-22.563a28 28 0 0 1-.136-1.77 33 33 0 0 1-.029-.896c-.007-.289-.015-.577-.015-.874 0-1.669.108-3.395.31-5.164-3.322-4.139-7.526-7.345-12.257-9.677-12.618-6.24-28.976-6.32-42.317-1.553-4.81 7.491-8.565 14.966-10.892 22.325-6.168 19.501 4.45 40.67 24.13 46.224z"/><path fill="#F9F9F9" d="M77.853 369.314c2.324-7.359 6.077-14.838 10.892-22.329 10.721-16.672 26.729-33.423 44.14-49.154 5.468-4.949 11.077-9.793 16.703-14.509l3.7 1.302c-5.098 4.298-10.175 8.695-15.132 13.183-17.413 15.732-33.42 32.482-44.14 49.155-4.815 7.49-8.569 14.97-10.893 22.329-6.169 19.498 4.446 40.669 24.13 46.226 1.82.514 3.637.867 5.421 1.047-3.381.4-7.032.012-10.691-1.022-19.685-5.558-30.298-26.728-24.13-46.227z" opacity=".4"/><path fill="#001F54" d="M130.956 360.514c.469 3.105 2.202 6.76 5.33 6.724.846-.007 1.661-.317 2.471-.542a15 15 0 0 1 4.34-.556 20 20 0 0 1-.058-.969 18 18 0 0 1-.028-.896c-.015-.288-.015-.577-.015-.874 0-1.669.108-3.395.31-5.163-3.322-4.14-7.526-7.346-12.257-9.678-.564 3.979-.707 7.973-.094 11.954z" opacity=".2"/><path fill="#001F54" d="M148.195 281.665c-26.49 22.378-59.975 51.869-72.035 85.041-3.622 9.722-3.291 20.907 1.054 30.364 5.12 11.474 16.204 20.094 28.736 21.824 4.169.578 8.668.351 12.813-1.425l-1.499.135c4.516 1.018 9.198 1.468 13.891 1.11 16.8-1.138 28.417-13.61 20.238-30.232l-1.093 3.102c6.119-2.762 10.469-9.842 8.573-16.666-1.748-6.858-9.181-10.114-15.586-10.22l2.124 1.999c-.505-4.949.153-10.115 1.297-15.176 3.444-15.526 11.135-29.525 18.46-43.526a.987.987 0 0 0-1.658-1.056c-3.259 4.283-6.23 8.784-8.948 13.451-5.51 9.359-9.723 19.547-12.145 30.156-1.222 5.334-2.003 10.908-1.453 16.622a2.214 2.214 0 0 0 2.094 1.998c2.614.123 5.183.664 7.265 1.839 4.332 2.25 5.637 7.543 3.208 11.677-1.141 2.044-3.007 3.692-5.206 4.72a2.306 2.306 0 0 0-1.104 3.081c6.71 13.621-2.997 22.558-16.428 23.443-4.131.298-8.347-.116-12.446-1.06a2.4 2.4 0 0 0-1.499.136c-3.079 1.309-6.681 1.538-10.217 1.027-10.855-1.523-20.486-8.975-24.959-18.987-4.85-10.464-3.64-21.772 1.162-32.026 4.606-10.55 11.186-20.075 18.405-29.069 14.679-18.107 31.995-33.84 49.739-48.958 2.094-1.818-.491-5.109-2.783-3.321z"/><path fill="#001F54" d="M149.355 365.819c-2.32-.316-4.686-.481-7.052-.331-2.36.149-4.729.639-6.856 1.623a.64.64 0 0 0-.313.85c.131.297.436.393.729.379 2.655-.039 5.22.483 7.81.899 1.577.049 3.154.201 4.655.777 3.027.934 4.15-3.624 1.027-4.197M150.134 386.591c-1.435.442-2.863.687-4.339.658-1.515-.106-3.094.33-4.269 1.279-1.625 1.234-2.539 3.447-2.098 5.446.357 1.748 1.749 3.623 3.636 3.783.797.071 1.157-.982.521-1.436-1.27-1.194-1.45-3.755.208-4.629.411-.236.863-.32 1.31-.275 2.156.278 4.425.034 6.436-.725 2.588-1.032 1.265-4.875-1.406-4.099zM144.973 356.818c-8.804-10.09-22.663-14.302-35.656-13.987a.79.79 0 0 0-.782.795.79.79 0 0 0 .743.782c9.334.583 18.609 3.06 25.986 8.812a36.5 36.5 0 0 1 6.397 6.393c1.885 2.279 5.249-.535 3.312-2.795"/></g><path fill="#F9F9F9" d="M112.145 396.359c5.613 1.589 11.203 1.669 15.825-.311 22.613 5.172 40.626-6.955 31.511-25.741 11.267-5.324 10.985-21.798-6.132-22.563-.029-.259-.051-.534-.079-.801-.196-2.499-.109-5.143.209-7.902.686-6.146 2.543-12.878 5.013-19.927l2.607-5.533 19.768-42.006-21.118-7.432c-5.626 4.716-11.231 9.556-16.699 14.51a427 427 0 0 0-10.776 10.069c-13.144 12.718-24.902 25.922-33.368 39.087-4.81 7.491-8.565 14.966-10.892 22.325-6.168 19.501 4.45 40.67 24.13 46.224z"/><path fill="#5F5F82" d="M112.144 396.361c5.613 1.589 11.203 1.669 15.825-.311 22.613 5.172 40.626-6.955 31.511-25.741 11.267-5.324 10.985-21.798-6.132-22.563a28 28 0 0 1-.137-1.77 33 33 0 0 1-.029-.896c-.006-.288-.015-.577-.015-.874 0-1.669.108-3.395.311-5.163-3.323-4.139-7.526-7.346-12.257-9.678-12.619-6.24-28.977-6.319-42.317-1.552-4.811 7.49-8.566 14.965-10.893 22.324-6.167 19.502 4.45 40.67 24.131 46.224z"/><g fill="#F9F9F9" opacity=".4"><path d="M133.226 396.019c2.649.606 5.231.964 7.716 1.112-3.008.213-6.223.078-9.573-.443q.952-.282 1.857-.669M88.008 350.131c2.324-7.359 6.077-14.839 10.892-22.329 10.721-16.673 26.729-33.423 44.141-49.155 5.467-4.949 11.076-9.792 16.702-14.509l3.7 1.302c-5.098 4.298-10.175 8.696-15.132 13.184-17.413 15.731-33.419 32.482-44.14 49.155-4.815 7.49-8.569 14.969-10.893 22.328-6.169 19.499 4.446 40.669 24.131 46.227 1.819.514 3.637.867 5.42 1.046-3.381.401-7.032.012-10.691-1.022-19.684-5.557-30.297-26.727-24.13-46.226z"/></g><path fill="#001F54" d="M141.133 341.316c.469 3.105 2.202 6.76 5.33 6.725.845-.007 1.661-.318 2.47-.542a15 15 0 0 1 4.341-.557 20 20 0 0 1-.058-.968 18 18 0 0 1-.029-.896c-.015-.289-.015-.577-.015-.874 0-1.669.108-3.395.311-5.164-3.323-4.139-7.526-7.345-12.257-9.677-.564 3.979-.708 7.973-.095 11.953z" opacity=".2"/><path fill="#001F54" d="M158.361 262.488c-26.49 22.378-59.974 51.868-72.035 85.04-3.622 9.722-3.29 20.907 1.055 30.365 5.12 11.473 16.203 20.093 28.736 21.824 4.169.577 8.668.35 12.812-1.426l-1.499.136c4.517 1.017 9.199 1.467 13.892 1.109 16.8-1.138 28.417-13.61 20.237-30.232l-1.093 3.102c6.12-2.761 10.47-9.841 8.574-16.666-1.748-6.858-9.181-10.113-15.587-10.22l2.125 2c-.505-4.949.153-10.116 1.296-15.177 3.444-15.526 11.136-29.525 18.461-43.526a.987.987 0 0 0-1.658-1.056c-3.26 4.283-6.231 8.785-8.949 13.452-5.509 9.358-9.722 19.546-12.145 30.155-1.221 5.335-2.002 10.909-1.452 16.622a2.21 2.21 0 0 0 2.094 1.999c2.614.123 5.183.663 7.264 1.838 4.332 2.25 5.637 7.544 3.208 11.677-1.141 2.044-3.006 3.692-5.206 4.721a2.305 2.305 0 0 0-1.104 3.08c6.711 13.621-2.997 22.559-16.428 23.444-4.131.298-8.346-.117-12.446-1.061a2.4 2.4 0 0 0-1.499.136c-3.079 1.309-6.68 1.539-10.216 1.027-10.855-1.522-20.487-8.974-24.96-18.987-4.85-10.464-3.64-21.772 1.162-32.025 4.607-10.55 11.186-20.076 18.406-29.07 14.678-18.107 31.995-33.84 49.739-48.958 2.094-1.817-.491-5.108-2.784-3.321z"/><path fill="#001F54" d="M159.522 346.642c-2.32-.316-4.686-.482-7.053-.331-2.359.149-4.728.638-6.855 1.622a.64.64 0 0 0-.314.851c.132.297.437.392.729.379 2.655-.04 5.22.482 7.811.898 1.577.049 3.154.201 4.654.777 3.028.934 4.151-3.623 1.028-4.196M160.3 367.414c-1.434.442-2.862.686-4.338.658-1.516-.107-3.094.329-4.269 1.279-1.625 1.233-2.539 3.447-2.099 5.445.357 1.748 1.75 3.623 3.636 3.783.798.072 1.157-.982.521-1.436-1.269-1.194-1.45-3.755.208-4.629.412-.236.863-.32 1.311-.274 2.155.277 4.425.034 6.435-.725 2.588-1.033 1.265-4.875-1.406-4.1z"/><path fill="#001F54" d="M145.495 390.518c-2.499 2.256-6.504 1.579-9.305 1.106-2.944-.498-3.814-1.372-6.349-1.136-1.672.156-3.203.965-4.815 1.43-5.039 1.452-10.362-.516-15.233-2.457-2.289-.912-4.687-1.901-6.221-3.833-1.533-1.93-1.789-5.11.128-6.66 1.153-.933 2.752-1.053 4.233-1.009 9.087.265 18.16 5.106 26.907 2.63 2.675-.758 4.273-2.186 6.909-1.595 2.235.501 5.061 2.352 5.655 5.495.406 2.15-.296 4.573-1.91 6.029z" opacity=".2"/><path fill="#5F5F82" d="M255.268 91.742c12.503-4.877 29.904 5.263 38.21 10.65 22.381 14.517 26.843 11.163 31.807 17.106 4.369 5.232-5.601 22.902-21.723 29.121-16.184 6.242-35.637.971-51.056-20.989"/><path fill="#001F54" d="M254.889 90.79c14.111-5.791 30.7 4.09 42.385 11.466 6.173 3.858 12.504 7.332 19.237 9.88 5.964 2.039 13.382 5.233 11.658 12.958-2.209 9.665-9.554 17.387-17.662 22.602-13.575 8.583-31.285 6.819-43.574-3.053-6.017-4.655-10.763-10.6-14.429-17.006 4.805 5.602 10.127 10.693 16.164 14.536 11.772 7.864 27.363 9.174 39.518 1.682 7.126-4.389 13.879-11.21 15.907-19.494 1.303-5.377-5.315-6.71-9.085-8.275-7.073-2.604-13.735-6.215-20.025-10.164-6.144-4.032-12.163-7.831-18.887-10.633-6.435-2.614-13.641-4.663-20.455-2.58-1.192.41-1.935-1.386-.749-1.919z"/><path fill="#3B0372" d="M311.897 129.456c-8.944 5.662-23.012-6.826-30.309-12.061-10.706-7.68-21.439-4.123-20.245 10.935 0 0 7.282 13.805 26.45 13.813 18.067.005 24.104-12.685 24.104-12.685z" opacity=".25"/><path fill="#001F54" d="M311.892 129.454c-4.508 4.041-11.627 2.105-16.549-.185-5.218-2.413-9.833-5.769-14.236-8.934-5.211-4.035-13.892-7.285-17.534.316-1.168 2.206-1.725 4.892-2.237 7.676-.894-2.686-1.272-5.624-.671-8.658 1.349-7.349 9.028-10.341 15.666-8.011 2.905.894 5.64 2.597 7.935 4.413 4.409 3.423 8.47 6.927 12.918 9.836 4.388 2.762 9.398 5.625 14.706 3.546z"/><path fill="#FED" d="m102.924 108.927-33.057 8.185-10.932 2.17c-17.313-15.17-23.745-53.969-21.196-77.31 1.114-10.311 3.976-17.596 8.422-18.52 7.362-1.527 13.885 23.39 31.48 37.896 9.82 8.098 23.084 12.97 41.872 8.197 40.743-10.33-16.592 39.384-16.592 39.384z"/><path fill="#F9F9F9" d="M107.702 71.354c-13.56 2.349-24.338-1.034-33.099-6.826-16.856-11.128-26.235-31.15-33.399-36.41 1.334-2.607 2.99-4.262 4.953-4.67 7.362-1.528 13.884 23.39 31.48 37.895 7.617 6.283 17.313 10.624 30.063 10.01z" opacity=".5"/><path fill="#E2C3AF" d="m102.917 108.928-33.057 8.185-10.932 2.17c-17.313-15.17-23.745-53.969-21.196-77.31 0 0 5.026 46.84 21.748 35.565 8.33-5.61 12.657-11.224 18.156-16.19 9.82 8.1 23.084 12.971 41.872 8.198 40.744-10.33-16.591 39.384-16.591 39.384z"/><path fill="#001F54" d="M58.748 121.34a2.06 2.06 0 0 1-1.172-.502c-20.154-17.659-26.245-65.427-20.358-87.785 1.82-6.912 4.685-10.82 8.52-11.614 5.053-1.045 8.744 5.06 13.855 13.514 9.953 16.458 24.996 41.332 59.409 32.599 5.956-1.511 14.158-2.981 16.588 1.671 1.453 2.778 1.567 8.378-14.135 24.854-8.222 8.626-17.09 16.337-17.179 16.415l-.375.326-33.546 8.296a2.059 2.059 0 1 1-.988-4l32.583-8.056c16.254-14.162 32.104-31.875 29.989-35.92-.122-.237-1.506-2.23-11.921.414-37.38 9.485-54.01-18.025-63.95-34.46-3.588-5.93-7.292-12.064-9.491-11.612-2.083.433-4.041 3.577-5.37 8.628-5.654 21.47.648 67.481 19.088 83.634a2.06 2.06 0 0 1-1.545 3.603z"/><path fill="#FED" d="m235.667 91.79 27.211 3.97 8.955.912c12.676-12.422 14.697-41.755 10.758-58.989-1.73-7.614-4.618-12.858-8.264-13.259-6.037-.663-9.256 18.33-22.213 30.273-7.231 6.67-17.487 11.154-32.965 8.808-33.559-5.073 16.516 28.285 16.516 28.285z"/><path fill="#F9F9F9" d="M228.784 64.094c11.081.875 19.462-2.34 26.027-7.22 12.636-9.381 18.547-24.907 23.873-29.29-1.284-1.857-2.746-2.985-4.357-3.16-6.037-.665-9.256 18.329-22.213 30.271-5.608 5.174-13.043 9.034-23.333 9.401z" opacity=".5"/><path fill="#E2C3AF" d="m235.668 91.778 27.211 3.969 8.955.913c12.676-12.422 14.697-41.755 10.758-58.989 0 0-.241 35.237-14.583 27.911-7.142-3.645-11.075-7.55-15.894-10.895-7.231 6.67-17.487 11.154-32.965 8.808-33.559-5.073 16.515 28.285 16.515 28.285z"/><path fill="#001F54" d="M271.649 98.713a2.06 2.06 0 0 1-1.255-3.523c13.091-12.828 14.427-45.655 8.94-61.527-1.491-4.314-3.445-7.005-5.227-7.2-1.548-.166-4.08 4.706-6.302 9.013-6.439 12.48-17.05 33.035-45.353 30.494a61 61 0 0 1-3.605-.436c-8.057-1.218-9.191.161-9.201.176-.006.021-.635 2.994 12.427 13.53 6.219 5.014 12.734 9.478 14.355 10.574l26.753 3.894a2.06 2.06 0 1 1-.596 4.078l-27.676-4.028-.387-.257c-.077-.052-7.776-5.195-15.066-11.077-13.978-11.28-14.637-15.653-13.651-18.204 1.564-4.041 8.119-3.598 13.659-2.758 28.089 4.26 38.077-15.08 44.679-27.874 3.476-6.736 5.996-11.618 10.305-11.23q.054.004.109.009c2.48.274 6 2.221 8.674 9.951 5.764 16.672 4.733 51.425-9.952 65.817a2.06 2.06 0 0 1-1.628.58z"/><path fill="#F9F9F9" d="M207.413 240.385s88.687-40.303 88.827-41.664c2.479-24.397.024-83.534-36.377-117.791-18.419-17.336-47.937-28.441-81.162-28.118-56.76.554-87.495 25.913-101.457 49.409-29.857 50.239-27.458 132.181-.246 161.752.926 1.007 125.703-23.311 125.703-23.311"/><path fill="#F9F9F9" d="M296.239 198.72c-.14 1.358-88.823 41.663-88.823 41.663l-4.709.274s-124.784 24.317-125.71 23.314c-27.212-29.57-29.61-111.508.247-161.75 13.965-23.5 44.702-48.854 101.457-49.408 9.008-.088 17.744.664 26.057 2.152 22.362 4.002 41.677 13.33 55.104 25.963 10.038 9.443 17.488 20.773 22.967 32.749l.008.008c14.409 31.464 15.202 67.362 13.402 85.035"/><path fill="#3B0372" d="M296.702 192.669a122 122 0 0 1-.463 6.057c-.139 1.359-88.822 41.664-88.822 41.664l-4.71.273S77.924 264.98 76.997 263.977c-27.212-29.57-29.608-111.508.248-161.749 3.579-6.02 8.256-12.162 14.194-17.978a84 84 0 0 0-4.847 7.27c-6.089 10.247 11.49 13.729 10.228 28.945-11.204 22.54-28.964 23.362-30.157 32.733-5.103 40.104 2.122 80.99 19.681 100.071.927 1.003 125.71-23.314 125.71-23.314l4.71-.274s57.451-26.111 79.94-37.011z" opacity=".25"/><path fill="#5F5F82" d="M282.839 113.696c-9.696 4.16-23.185 6.449-37.453 3.451-31.768-6.674-43.324-38.062-40.626-62.171 22.362 4.003 41.677 13.33 55.104 25.963 10.038 9.443 17.488 20.773 22.967 32.75z"/><path fill="#001F54" d="M76.75 266.015c-.742-.066-.963-.305-1.266-.636-13.382-14.539-21.539-42.39-21.823-74.501-.294-33.186 7.657-65.877 21.812-89.699 11.03-18.56 39.104-49.79 103.21-50.416 32.295-.318 63.176 10.403 82.594 28.677 35.417 33.335 39.931 90.801 37.015 119.5-.15 1.468-.166 1.621-15.101 8.736-7.382 3.517-17.66 8.317-30.55 14.268a8871 8871 0 0 1-44.373 20.326 2.06 2.06 0 0 1-2.728-1.023 2.06 2.06 0 0 1 1.023-2.728c32.548-14.79 81.324-37.24 87.72-40.92 2.652-28.243-1.955-83.277-35.829-115.159-18.659-17.56-48.469-27.862-79.729-27.556-62.087.606-89.119 30.584-99.706 48.399-30.293 50.974-25.799 130.574-1.12 158.616 8.515-.93 78.045-14.216 124.411-23.251a2.061 2.061 0 0 1 .789 4.046c-.312.061-31.558 6.149-62.514 12.035-18.185 3.459-32.715 6.172-43.186 8.065-14.5 2.621-18.946 3.374-20.648 3.221z"/><path fill="#FFD8BE" d="M277.543 173.632c11.04 1.733 30.1 9.727 35.362 30.664 13.3 52.934-50.759 96.625-130.948 94.989-70.305-1.432-108.028-26.901-113.868-52.315-4.593-19.988 4.833-41.391 29.285-55.367 0 0 14.393-7.583 41.059-11.389 19.013-2.711 52.299-2.608 74.581-3.569 18.157-.782 34.808-4.147 46.572-4.245 9.408-.078 17.958 1.23 17.958 1.23z"/><path fill="#001F54" d="M140.572 262.636c-13.725-3.337-36.59-9.198-37.971-25.952-.111-1.642-1.577-2.881-3.216-2.676a2.876 2.876 0 0 0-2.523 2.676c-.153 2.517.18 5.13 1.035 7.596 5.859 15.711 28.015 19.326 42.675 18.358z"/><path fill="#F27E80" d="M113.289 254.733s-16.775-7.43-14.35-20.404c2.693-14.406 18.924-15.239 23.201-6.061 5.562 11.944-15.666 17.733-8.851 26.465"/><path fill="#F9F9F9" d="M113.284 254.732s-2.185-.97-4.857-2.816c.435-1.055 1.136-2.098 1.999-3.14 4.035-4.936 11.274-10.035 7.747-17.598-2.613-5.616-9.695-7.486-15.419-4.793 5.842-6.298 16.116-5.148 19.386 1.884 3.527 7.564-3.712 12.663-7.747 17.598-2.333 2.859-3.604 5.669-1.109 8.864z" opacity=".7"/><path fill="#FF5C64" d="M113.291 254.746s-16.77-7.438-14.339-20.409c.415-2.187 1.125-4.059 2.069-5.629 0 0-1.479 8.674 7.222 6.75 0 0-3.118 7.827 6.156 10.422-2.333 2.859-3.603 5.669-1.108 8.864z"/><path fill="#001F54" d="M113.293 256.891a2.153 2.153 0 0 0 1.698-3.476c-1.993-2.556-.618-4.471 3.521-8.902 4.033-4.319 9.055-9.695 5.582-17.148-2.335-5.015-7.889-7.879-13.813-7.132-5.393.681-11.757 4.639-13.454 13.705-2.707 14.483 14.846 22.437 15.593 22.769.282.125.577.184.871.184zm-1.151-32.469c3.539 0 6.676 1.812 8.05 4.761 2.093 4.497-.426 7.682-4.827 12.392-2.347 2.514-5.064 5.422-5.534 8.688-4.316-2.941-10.116-8.343-8.771-15.534 1.079-5.767 4.727-9.588 9.759-10.224q.669-.084 1.323-.083"/><path fill="#001F54" d="M111.126 233.123c-8.063 4.511-9.894 12.473-3.856 19.687 1.204 1.454 3.403-.298 2.245-1.798-6.435-5.85-5.044-12.935 1.611-17.889"/><path fill="#FFB6B8" d="M303.075 252.275c-20.782 28.809-67.323 48.109-121.119 47.009-70.304-1.433-108.029-26.897-113.867-52.311-1.53-6.663-1.504-13.482.114-20.13.16.965.353 1.933.575 2.892 6.222 27.086 46.433 54.231 121.36 55.759 46.034.943 87.07-12.136 112.935-33.217z"/><path fill="#001F54" d="M277.551 173.63c13.678 1.06 27.569 9.002 34.125 21.545 6.438 12.68 6.684 28.074 2.119 41.403-16.449 43.732-71.666 61.813-114.528 64.41-35.197 1.582-75.906-2.502-106.604-20.932-16.426-9.976-29.61-25.756-27.522-46.068 1.55-19.073 15.684-34.364 32.245-42.387-11.263 7.383-21.09 17.239-25.735 29.922-12.172 34.691 18.286 56.158 47.56 65.881 41.266 13.145 91.54 13.79 132.317-1.328 24.368-9.189 49.181-25.372 58.067-50.94 4.177-12.26 3.813-26.293-1.541-38.133-5.665-12.079-17.747-20.103-30.496-23.374z"/><path fill="#F9F9F9" d="M96.606 94.93c-15.14-4.677-34.798 8.793-44.134 15.867-25.158 19.063-30.697 15.492-36.051 22.932-4.712 6.55 8.517 26.541 28.035 32.486 19.595 5.968 42.074-1.931 58.408-29.177"/><path fill="#001F54" d="M96.295 95.92c-16.078-3.445-33.288 9.652-45.539 18.847-7.067 5.192-14.58 10.013-22.664 13.69-4.521 2.244-12.256 4.505-10.24 10.983 3.089 9.733 11.69 17.282 20.56 21.921 15.087 7.893 33.596 4.898 46.801-5.571 6.78-5.13 12.56-11.663 17.641-18.745-3.89 7.799-9.032 15.144-15.73 21.079-17.959 16.359-44.15 16.155-61.875-.593-5.65-5.482-11.73-12.55-11.842-20.92.35-6.532 7.817-9.68 12.892-11.986 7.75-3.596 14.943-8.257 21.9-13.346C61.143 101.668 80.001 88.481 96.9 93.95c1.196.456.66 2.284-.607 1.97z"/><path fill="#3B0372" d="M33.027 144.309c11.015 5.911 26.548-10.042 34.708-16.849 11.972-9.988 24.92-6.716 24.771 11.153 0 0-7.427 16.92-30.011 18.583-21.291 1.568-29.468-12.887-29.468-12.887" opacity=".25"/><path fill="#001F54" d="M33.021 144.312c6.22 2.432 12.479-1.227 17.476-4.769 5.169-3.715 9.78-8.175 14.675-12.548 3.726-3.403 8.626-6.56 13.955-6.972 5.653-.722 11.328 3.135 12.832 8.579 1.086 3.34 1.067 6.771.542 10.014-.536-3.243-1.233-6.425-2.67-9.121-4.927-9.652-15.784-5.202-22.031.551-8.225 6.731-23.52 21.246-34.777 14.268z"/><path fill="#F48990" d="M256.847 178.991c1.301 1.105 1.791 4.357-1.142 6.108-2.947 1.759-8.471.91-8.471.91s.245-2.974 2.654-5.73c1.928-2.205 5.345-2.659 6.959-1.288M165.459 184.76c-.965 1.41-.582 4.679 2.705 5.587 3.305.912 8.409-1.374 8.409-1.374s-1.018-2.803-4.064-4.821c-2.441-1.615-5.852-1.143-7.05.608"/><path fill="#001F54" d="M115.487 174.469c-4.077-6.678-4.101-15.294-1.49-22.712 2.959-8.255 10.509-14.363 18.949-15.856 8.283-1.695 17.057 1.735 22.887 7.415 5.448 5.21 9.318 11.905 10.767 19.297-4.943-4.701-10.043-9.079-15.799-12.205-10.119-5.874-21.206-3.873-27.961 5.94-3.514 5.136-5.938 11.795-7.353 18.121M212.977 159.077c-2.737-10.913-1.001-23.462 6.922-32.147 8.104-8.675 23.046-9.648 30.623.153 3.578 4.503 5.144 9.551 5.366 14.957.062 1.707-.094 3.443-.516 5.091a60.4 60.4 0 0 0-5.158-8.057c-3.294-4.151-6.851-8.024-12.115-8.695-4.647-.443-9.257 1.598-12.447 4.939-6.161 6.63-9.04 14.977-12.675 23.759"/></svg>