<svg xmlns="http://www.w3.org/2000/svg" width="117" height="164" fill="none"><path fill="#fff" d="M36.304 136.845c2.326 3.294 18.983 14.314 34.432 4.755 3.498 3.815 7.378 3.02 9.234 1.59 3.422-2.637 1.545-8.674 1.175-9.765-1.385-4.093-2.987-7.552-7.283-7.064-3.893.24-10.073 2.892-13.193-1.854"/><path fill="#fff" d="M81.98 138.687c-.073 1.689-.575 3.397-2.011 4.504-1.857 1.429-5.737 2.223-9.234-1.591-15.449 9.559-32.106-1.46-34.431-4.754l19.492-9.872 4.873-2.467c3.12 4.746 9.3 2.095 13.191 1.855 4.296-.488 5.899 2.969 7.284 7.063.214.633.936 2.93.836 5.262"/><path fill="#EFEFEF" d="M81.98 138.684c-.073 1.689-.575 3.398-2.011 4.504-1.857 1.429-5.737 2.223-9.234-1.59-15.449 9.558-32.106-1.461-34.431-4.754l19.492-9.873 3.346 3.774s-1.737 6.031 3.8 6.695c5.878.707 11.765-3.941 11.765-3.941s1.252 5.476 4.365 6.044c1.403.257 2.323-.242 2.908-.858z"/><path fill="#595959" d="M81.982 138.686c-.072 1.689-.574 3.398-2.01 4.504-1.858 1.429-5.737 2.223-9.234-1.59q-.066.042-.132.08c1.854-1.973 3.625-4.605 3.807-7.958.192-.14.296-.222.296-.222s1.253 5.476 4.366 6.045c1.403.256 2.323-.242 2.907-.859"/><path fill="#5F5F82" d="M79.971 143.19c-1.857 1.429-5.736 2.223-9.234-1.59q-.065.042-.131.08c3.023-3.216 5.818-8.18 1.898-15.165.477-.072.931-.128 1.36-.154 4.295-.488 5.898 2.969 7.282 7.063.37 1.091 2.247 7.13-1.174 9.767z"/><path fill="#001F54" d="M81.98 138.688c-.072 1.689-.574 3.398-2.01 4.504-1.858 1.429-5.737 2.223-9.234-1.59l-.133.08c1.856-1.973 3.626-4.605 3.808-7.958.192-.14.296-.222.296-.222s1.253 5.476 4.366 6.045c1.403.256 2.323-.242 2.907-.859" opacity=".2"/><path fill="#001F54" d="M57.365 146.156c-3.39 0-6.47-.626-8.986-1.403-6.457-1.994-11.384-5.641-12.682-7.478l1.21-.855c1.021 1.445 5.562 4.957 11.91 6.917 5.388 1.664 13.496 2.604 21.528-2.365a.74.74 0 0 1 .936.13c3.336 3.638 6.845 2.575 8.235 1.504 2.984-2.299 1.295-7.851.927-8.941-1.544-4.561-3.038-6.957-6.498-6.565l-.038.003c-.839.052-1.814.226-2.847.41-3.711.661-8.33 1.484-11.011-2.596l1.238-.814c2.146 3.264 6.06 2.567 9.513 1.951 1.069-.19 2.079-.37 2.997-.429 4.877-.545 6.653 3.439 8.05 7.565.597 1.766 2.26 7.75-1.426 10.59-2.356 1.816-6.368 2.148-9.808-1.237-4.569 2.692-9.135 3.614-13.248 3.614z"/><path fill="#001F54" d="M73.533 140.553c1.715 1.935 4.883 2.608 7.014 1.008l.74 1.285c-2.76 1.36-6.156.264-7.755-2.293M69.191 141.651c1.776-.989 3.195-2.527 4.344-4.207a16 16 0 0 1-1.397 2.858 11.7 11.7 0 0 1-2.087 2.556z"/><path fill="#C4612B" d="M104.592 111.116c-3.449 1.263-4.688 3.482-4.924 4.994-.187 1.197-.084 2.423.982 3.622 1.124 1.265 3.717 2.565 6.81 2.237 1.262-.135 2.864-.416 4.631.417.302-.322.229-.845-.042-1.442 1.007-.265 2.21-.448 4.083-.336.019.001.233-5.112-6.601-9.054.458-1.027.035-1.834-.842-2.23-1.048 1.7-1.784.945-4.098 1.792z"/><path fill="#C4612B" d="M100.652 119.732c1.123 1.265 3.715 2.567 6.809 2.237 1.258-.133 2.853-.415 4.614.408l.018.008a.7.7 0 0 0 .112-.159.96.96 0 0 0 .073-.545 2.6 2.6 0 0 0-.229-.736c1.008-.265 2.212-.449 4.083-.336a2 2 0 0 0-.001-.305q-.002-.047-.008-.104a7 7 0 0 0-.055-.464q-.008-.054-.019-.114l-.05-.261q-.013-.062-.029-.126a8 8 0 0 0-.283-.967c-.657-1.844-2.265-4.467-6.156-6.713.458-1.028.036-1.834-.842-2.231-1.047 1.702-1.783.946-4.098 1.793-2.854 1.047-4.195 2.746-4.705 4.157l-.003.003a4.4 4.4 0 0 0-.216.835c-.185 1.196-.084 2.421.984 3.621z"/><path fill="#5F5F82" d="M100.652 119.732c1.123 1.265 3.715 2.567 6.809 2.237 1.258-.133 2.853-.415 4.614.408l.019.008a.7.7 0 0 0 .111-.159.96.96 0 0 0 .073-.545 2.6 2.6 0 0 0-.229-.736c1.009-.265 2.212-.449 4.084-.336a2 2 0 0 0-.002-.305q-.002-.047-.008-.104a6 6 0 0 0-.055-.464l-.018-.114q-.023-.122-.051-.261a8.56 8.56 0 0 0-.311-1.093c-.658-1.844-2.266-4.467-6.157-6.713l.038-.089c.154-.381.184-.73.114-1.037l-.016-.064c-.12-.43-.438-.771-.89-.999l-.088-.042c-1.047 1.702-1.783.946-4.098 1.793-2.854 1.047-4.195 2.746-4.704 4.157l-.004.003a4.4 4.4 0 0 0-.215.835 6 6 0 0 0-.075.864c-.007.917.248 1.845 1.058 2.757z"/><path fill="#fff" d="M109.569 111.458a1 1 0 0 1-.003.111l-.036-.021q.022-.046.039-.09" opacity=".4"/><path fill="#fff" d="M99.592 116.976c.34-.45.655-.793.951-1.314.713-1.258 2.188-2.755 3.885-3.377 2.149-.788 3.009-.112 4.451-1.465.52.233.686.225.689.646.154-.381.184-.73.114-1.037l-.016-.064c-.12-.43-.438-.771-.89-.999l-.087-.04v-.002c-1.048 1.702-1.784.946-4.099 1.792-2.854 1.048-4.195 2.747-4.705 4.158l-.003.003a4.4 4.4 0 0 0-.216.835 6 6 0 0 0-.074.864M115.69 118.262c.493 1.383.454 2.326.446 2.342q-.17-.01-.331-.016a8.4 8.4 0 0 0-.363-1.356c-.658-1.845-2.264-4.468-6.157-6.712.165-.37.266-.683.285-.949 3.866 2.24 5.464 4.855 6.12 6.692z" opacity=".4"/><path fill="#001F54" d="M100.65 119.732c1.123 1.265 3.715 2.566 6.809 2.236 1.258-.132 2.853-.415 4.614.409l.018.008a.7.7 0 0 0 .112-.159.96.96 0 0 0 .073-.545 2.6 2.6 0 0 0-.229-.736c1.008-.265 2.212-.449 4.083-.336.003-.005.01-.114-.001-.305q-.003-.047-.008-.105a7 7 0 0 0-.055-.463q-.008-.054-.019-.114l-.05-.262q-.013-.061-.029-.126a8 8 0 0 0-.283-.966c-.058.909-.51 1.261-1.394 1.087-1.767-.347-3.197-1.109-4.969-.917.558 1.188-1.939 1.558-2.627 1.317-2.697-.941-2.478-3.239-3.761-4.494-1.34-1.312-3.05.015-3.052.016a4.4 4.4 0 0 0-.216.834c-.185 1.197-.084 2.422.984 3.622z" opacity=".2"/><path fill="#001F54" d="M112.092 123.125a.7.7 0 0 1-.316-.071c-1.423-.671-2.735-.521-3.893-.389l-.343.039c-3.306.351-6.12-.993-7.442-2.481-1.388-1.562-1.327-3.162-1.161-4.229.14-.895.942-3.943 5.402-5.576.904-.331 1.577-.435 2.119-.518.854-.132 1.112-.171 1.601-.966a.744.744 0 0 1 .936-.287c1.103.497 1.625 1.483 1.418 2.568 3.331 2.052 4.907 4.375 5.647 5.997.856 1.876.859 3.355.784 3.606a.746.746 0 0 1-.753.528c-1.388-.083-2.352.004-3.094.142.114.692-.112 1.134-.364 1.403a.74.74 0 0 1-.541.234m-2.687-2.054c.624 0 1.301.065 2.01.268l-.04-.091a.74.74 0 0 1 .486-1.022c.767-.202 1.833-.417 3.478-.392-.22-1.437-1.266-4.807-6.178-7.64a.74.74 0 0 1-.306-.944q.245-.546-.001-.898c-.691.785-1.388.892-2.171 1.013-.502.077-1.07.164-1.835.445-3.699 1.354-4.339 3.719-4.447 4.412-.196 1.259.044 2.161.804 3.016 1.035 1.166 3.411 2.287 6.178 1.992l.332-.037a15 15 0 0 1 1.69-.122"/><path fill="#001F54" d="M111.433 121.352c-.449-1.047-1.011-2.171-1.975-2.847 1.271.277 2.304 1.165 3.23 2.048.795.928-.75 1.913-1.255.799"/><path fill="#fff" d="M74.976 120.503c5.902 6.878 14.33 6.328 17.168 5.349 4.297-1.482 7.592-5.503 10.005-7.81 1.48-1.198.671-3.19-1.5-2.916-2.276.35-3.148 2.279-5.64 4.227-3.876 3.03-11.98 3.401-17.107-4.978"/><path fill="#001F54" d="M87.976 127.158c-3.913 0-9.32-1.23-13.565-6.176l1.125-.965c5.824 6.787 13.97 5.957 16.364 5.131 3.33-1.148 6.071-3.941 8.274-6.185a65 65 0 0 1 1.462-1.46l.045-.041c.409-.331.572-.751.424-1.096-.17-.399-.693-.593-1.365-.508-1.218.187-1.988.964-3.054 2.04-.616.62-1.312 1.324-2.223 2.035-2.28 1.781-5.516 2.505-8.655 1.938-2.662-.482-6.477-2.107-9.54-7.112l1.264-.774c2.777 4.537 6.177 6 8.54 6.428 2.69.487 5.556-.145 7.479-1.648.836-.653 1.498-1.321 2.082-1.91 1.17-1.181 2.181-2.2 3.901-2.464 1.357-.173 2.501.376 2.935 1.394.407.956.082 2.055-.83 2.809-.437.418-.908.899-1.408 1.407-2.311 2.355-5.188 5.286-8.848 6.548-.878.303-2.457.608-4.407.608z"/><path fill="#C97043" d="M45.715 93.871c-8.458 1.599-21.707 9.487-34.398 7.861C6.519 101.247-.3 98.092.874 88.095c1.037-7.18 4.822-10.65 4.822-10.65l14.41 2.514c9.324-.142 12.688-1.911 22.18-2.024"/><path fill="#C97043" d="M45.718 93.87c-3.62.683-8.118 2.52-13.076 4.27-5.742 2.028-12.101 3.94-18.424 3.803a27 27 0 0 1-2.9-.211C6.523 101.248-.295 98.092.878 88.095c1.037-7.179 4.821-10.65 4.821-10.65l14.41 2.514c9.325-.142 12.689-1.912 22.18-2.024z"/><path fill="#fff" d="M45.717 93.87c-3.62.683-8.12 2.52-13.076 4.27-5.744 2.027-12.102 3.939-18.425 3.804a27 27 0 0 1-2.9-.212C6.52 101.248-.299 98.092.874 88.095c1.037-7.179 4.823-10.65 4.823-10.65l14.408 2.514a67 67 0 0 0 8.129-.608c4.307-.571 7.886-1.344 14.051-1.416l1.093 5.078z"/><path fill="#5F5F82" d="M2.988 81.53c-.617 2.842 1.775 6.268 3.739 6.115 1.619-.127.825-4.027.825-4.027l-2.014-1.4"/><path fill="#EFEFEF" d="M43.379 83.02a45 45 0 0 1-4.45-.438c-2.767-.41-7.646-1.68-10.695-3.224 4.308-.572 7.886-1.345 14.052-1.416z"/><path fill="#B25B36" d="M69.344 80.225c-7.942.78-13.365 1.972-18.568 2.53l-1.593-1.313c6.525-.113 13.683-1.36 20.16-1.216"/><path fill="#B25B36" d="M59.324 81.53c-7.504 1.16-12.838 2.175-20.396 1.053-1.374-.203-3.268-.62-5.201-1.177 1.164-1.724 3.03-3.843 5.6-4.82 4.707-1.793 18.784 2.886 18.784 2.886q.604.97 1.213 2.058"/><path fill="#EFEFEF" d="m31.038 86.755 1.603 11.39c-5.743 2.028-12.101 3.94-18.424 3.803-4.65-.935-8.63-2.969-9.46-6.651-1.261-5.594 1.356-6.975.3-8.651 4.198.073 10.723-.547 13.766-.382.22 2.572 1.148 4.88 3.064 5.037 4.397.36 9.15-4.546 9.15-4.546z"/><path fill="#001F54" d="M14.81 102.694c-1.198 0-2.396-.07-3.586-.223-1.69-.17-5.97-.946-8.748-4.405C.44 95.531-.346 92.148.139 88.013c1.065-7.376 4.894-10.96 5.057-11.11a.74.74 0 0 1 .628-.183l14.341 2.501c4.527-.073 7.695-.543 10.759-.998 3.199-.475 6.507-.967 11.353-1.024l.017 1.482c-4.745.056-8.003.54-11.153 1.008-3.127.464-6.361.944-11.023 1.015a.7.7 0 0 1-.139-.01L5.954 78.247c-.826.898-3.515 4.2-4.347 9.96-.434 3.705.245 6.717 2.024 8.932 2.427 3.022 6.236 3.707 7.76 3.861 8.37 1.071 16.884-2.035 24.395-4.777 3.579-1.306 6.96-2.54 9.792-3.076l.275 1.457c-2.714.512-6.039 1.726-9.559 3.011-6.293 2.297-13.915 5.079-21.484 5.079"/><path fill="#001F54" d="M20.089 87.898c1.03 1.899.865 4.266-.109 6.144a12 12 0 0 1-.904 1.403c.129-.29.267-.571.383-.86.54-1.386.705-2.993.212-4.408-.176-.513-.414-1.02-.76-1.432a.8.8 0 0 1-.453-1.04c.217-.605 1.104-.68 1.425-.134z"/><path fill="#fff" d="M65.627 128.433c-3.69 5.903-11.26 9.485-17.598 10.692-1.1.209-2.161.346-3.16.412-5.545.241-14.54-6.042-19.347-10.409-1.757-1.595-2.954-2.935-3.219-3.606-4.544-11.537.406-21.964 5.132-31.237 1.836-3.605 3.639-7.034 4.837-10.288 0 0 2.344-5.626 7.054-7.418 4.707-1.792 18.785 2.887 18.785 2.887 4.182 6.715 8.66 17.875 10.174 28.511 1.102 7.735.633 15.191-2.659 20.456z"/><path fill="#EFEFEF" d="M59.324 81.53c-7.504 1.16-12.838 2.175-20.396 1.053-1.374-.203-3.268-.62-5.201-1.177 1.164-1.724 3.03-3.843 5.6-4.82 4.707-1.793 18.784 2.886 18.784 2.886q.604.97 1.213 2.058M65.63 128.432c-3.69 5.903-11.26 9.485-17.598 10.692-.096-2.969-.104-6.285.324-6.411 1.16-.336 6.826-1.945 6.207-5.255-.491-2.623-14.57-9.186-6.474-29.455 2.764-7.054 18.427 9.497 20.2 9.973 1.1 7.734.633 15.19-2.66 20.455z"/><path fill="#FFD8BE" d="M48.353 107.016c0 5.882-1.183 8.977-6.273 9.491-1.547 6.165-2.08 11.925-6.603 12.679-3.706.618-7.058.548-9.955-.058-1.757-1.595-2.954-2.935-3.219-3.606-4.544-11.537.406-21.964 5.132-31.238q.03-.01.064-.022c2.514-4.49 5.471-9.17 12.291-7.89 6.422 1.206 8.566 10.519 8.564 20.644"/><path fill="#FFB6B8" d="M40.584 122.738c-.937 3.407-2.196 5.967-5.108 6.452-3.706.618-7.057.547-9.955-.058-1.756-1.595-2.953-2.935-3.218-3.606a25.4 25.4 0 0 1-1.792-8.82c4.024 2.284 8.607 1.097 15.493.368 3.04-.323 4.216 2.519 4.58 5.664"/><path fill="#001F54" d="M32.273 84.001c-1.829 5.855-4.967 11.238-7.309 16.871-3.327 7.688-5.178 15.882-2.041 23.952l.098.261.049.13c.22.452.586.858.936 1.258 2.017 2.185 4.411 4.124 6.815 5.901 3.635 2.591 7.51 5.136 11.863 6.179 3.666.795 9.472-1.073 12.844-2.645 4.013-1.904 7.735-4.691 9.905-8.606 4.745-8.978 2.268-21.526-.577-30.835-1.84-5.77-4.21-11.442-7.373-16.605l1.258-.783c3.247 5.301 5.645 11.04 7.528 16.943 2.973 9.742 5.454 22.562.461 31.997-2.317 4.193-6.323 7.226-10.557 9.249-3.687 1.731-9.773 3.674-13.81 2.815-4.639-1.074-8.701-3.686-12.51-6.384-2.52-1.864-4.927-3.802-7.076-6.122-.566-.631-1.143-1.32-1.404-2.172-3.238-8.29-1.323-17.291 2.41-25.058 2.588-5.602 5.97-10.723 8.49-16.346"/><path fill="#fff" d="M42.082 116.507c-3.51.249-12.61.759-18.43 5.433-5.666 4.549-10.321 13.088-10.321 13.088-4.339.872-5.981 3.281-6.64 4.518-.604 1.135-1.65 4.933 1.63 6.933 11.858 8.138 16.003 6.049 18.285 4.006 2.42-1.754 5.137-6.214 7.809-8.338 3.691-2.935 9.034-1.548 16.192-3.611"/><path fill="#fff" d="M50.606 138.537c-7.157 2.062-12.5.676-16.19 3.609-2.674 2.126-5.391 6.585-7.81 8.34-2.28 2.043-6.427 4.132-18.284-4.008-3.281-1.998-2.235-5.796-1.63-6.932q.08-.153.181-.325c.762-1.295 2.473-3.393 6.457-4.194 0 0 4.656-8.537 10.32-13.085 5.821-4.674 14.92-5.185 18.43-5.435l6.273 16.21z"/><path fill="#fff" d="M50.607 138.537c-7.157 2.062-12.5.676-16.191 3.609-1.869 1.487-3.76 4.114-5.555 6.159-.772.881-1.526 1.655-2.255 2.181-2.28 2.043-6.427 4.132-18.284-4.008-3.281-1.998-2.235-5.796-1.63-6.932q.08-.153.181-.325c.685-1.162 2.133-2.971 5.303-3.908q.543-.163 1.154-.286s4.656-8.537 10.32-13.085c5.822-4.674 14.921-5.185 18.43-5.435l6.274 16.21z"/><path fill="#fff" d="M50.608 138.537c-7.158 2.063-12.5.678-16.191 3.61-1.87 1.486-3.76 4.113-5.554 6.158-.773.882-1.529 1.656-2.257 2.183-2.28 2.041-6.426 4.131-18.283-4.01-3.283-1.998-2.236-5.796-1.632-6.932.056-.1.115-.211.184-.324.683-1.164 2.132-2.972 5.302-3.907q.542-.165 1.154-.287s2.353-4.315 5.749-8.444c1.38-1.681 2.934-3.329 4.571-4.643 2.803-2.251 6.368-3.536 9.7-4.292 3.589-.812 6.91-1.012 8.73-1.142l6.273 16.21 2.254 5.819z"/><path fill="#5F5F82" d="M33.367 120.05c-.707 1.401.606 2.855-1.945 4.461-1.667 1.05-3.195.356-4.955.789-1.173.289-2.316 2.948-4.91 2.855-1.254-.045-2.028-.839-2.478-1.567 1.38-1.681 2.935-3.329 4.572-4.643 2.803-2.251 6.367-3.537 9.7-4.293.447.537.569 1.304.017 2.398"/><path fill="#EFEFEF" d="M50.606 138.536c-7.157 2.062-12.5.676-16.19 3.609-2.674 2.126-5.391 6.585-7.81 8.34-2.28 2.043-6.427 4.132-18.284-4.008-3.281-1.998-2.235-5.796-1.63-6.932q.08-.153.181-.325c-.034.845.345 2.171 1.355 2.976 4.182 3.485 11.053 7.071 15.169 5.378 6.627-2.727 5.69-8.846 11.018-11.219 4.346-1.937 10.62-2.489 13.938-3.64z"/><path fill="#595959" d="M28.861 148.305c-.772.881-1.526 1.655-2.255 2.181-2.28 2.043-6.427 4.132-18.284-4.007-3.281-1.999-2.235-5.797-1.63-6.933q.08-.151.181-.325c-.034.845.345 2.172 1.355 2.976 4.182 3.485 11.053 7.071 15.169 5.378a11 11 0 0 0 2.13-1.151c1.167 1.119 2.183 1.679 3.334 1.881"/><path fill="#5F5F82" d="M28.861 148.3c-.772.88-1.526 1.655-2.255 2.18-2.28 2.043-6.427 4.132-18.284-4.007-3.281-1.999-2.235-5.797-1.63-6.933q.08-.151.181-.324c.685-1.163 2.133-2.972 5.303-3.908 3.017.618 6.423 2.224 9.722 6.723 3.11 4.24 4.798 5.888 6.963 6.269"/><path fill="#001F54" d="M28.858 148.304c-.772.88-1.526 1.654-2.255 2.18-2.28 2.043-6.427 4.132-18.284-4.007-3.281-1.999-2.235-5.797-1.63-6.933q.08-.151.181-.325c-.033.845.345 2.172 1.355 2.976 4.182 3.485 11.053 7.071 15.169 5.378a11 11 0 0 0 2.13-1.151c1.167 1.119 2.183 1.679 3.334 1.882" opacity=".2"/><path fill="#001F54" d="M42.082 116.51c-7.232.985-15.076 2.45-20.169 8.138-3.14 3.311-5.758 7.144-8.115 11.039-2.496.45-4.998 1.651-6.289 3.919-.82 1.397-.996 3.349-.275 4.724.325.631.874 1.152 1.502 1.537 3.774 2.51 9.107 5.971 13.742 5.703 1.4-.109 2.626-.698 3.66-1.657 1.777-1.356 3.176-3.352 4.66-5.08 2.933-3.527 4.61-4.879 9.28-5.433 3.477-.387 6.987-.576 10.324-1.574l.41 1.425c-3.448 1.03-7.03 1.232-10.55 1.62-4.322.509-5.625 1.69-8.328 4.914-2.122 2.506-4 5.194-6.898 6.639-5.305 2.35-12.526-2.282-16.871-5.155-.898-.554-1.742-1.265-2.241-2.247-.992-1.935-.748-4.33.308-6.167 1.44-2.523 4.174-4.013 6.952-4.551l-.504.371a49 49 0 0 1 2.335-3.965c2.562-3.844 5.444-7.587 9.321-10.213 5.306-3.343 11.657-4.036 17.746-3.987"/><path fill="#fff" d="m39.647 109.944 3.426.579a2.93 2.93 0 0 1 1.893 1.185l6.112 8.567a8.65 8.65 0 0 0 5.6 3.505l23.705 4.011a8.756 8.756 0 0 0 10.093-7.172l2.815-16.641a8.755 8.755 0 0 0-7.172-10.093l-23.705-4.01a8.65 8.65 0 0 0-6.44 1.468l-8.59 6.08a2.92 2.92 0 0 1-2.178.495l-3.427-.58"/><g fill="#CEF"><path d="m32.981 110.703 2.792-16.247a1.84 1.84 0 0 1 2.105-1.513l2.721.453a1.817 1.817 0 0 1 1.482 2.11l-2.793 16.247a1.84 1.84 0 0 1-2.104 1.514l-2.721-.453a1.817 1.817 0 0 1-1.482-2.111M39.69 110.064l3.418.568c.76.126 1.438.552 1.884 1.182l6.063 8.58a8.53 8.53 0 0 0 5.574 3.497l23.642 3.928c4.754.79 9.278-2.455 10.104-7.248l2.882-16.729c.826-4.792-2.359-9.318-7.114-10.108l-23.641-3.927a8.64 8.64 0 0 0-6.435 1.502l-8.6 6.144a2.92 2.92 0 0 1-2.176.507l-3.417-.567"/></g><path fill="#fff" d="M67.87 116.515a12.7 12.7 0 0 0-.11-5.043 14.1 14.1 0 0 0-1.196-3.343 14.8 14.8 0 0 1-1.27-3.581c-1.045-4.878.617-9.723 3.877-13.529l16.953 2.869a8.755 8.755 0 0 1 7.173 10.092l-2.816 16.641a8.755 8.755 0 0 1-10.093 7.172l-17.743-3.002c2.776-1.012 4.554-4.613 5.224-8.276"/><path fill="#001F54" d="M68.77 116.497c.29-1.713.24-3.469-.147-5.22a15 15 0 0 0-1.27-3.551 14 14 0 0 1-1.196-3.366c-.935-4.37.373-8.904 3.685-12.769a.887.887 0 0 0-1.347-1.153c-3.626 4.232-5.11 9.442-4.072 14.292a15.7 15.7 0 0 0 1.346 3.795c.511 1.012.889 2.066 1.122 3.132.35 1.581.384 3.17.104 4.695-.561 3.06-2.079 6.664-4.658 7.604a.885.885 0 1 0 .606 1.665c2.788-1.016 4.953-4.361 5.794-8.95l.03-.175z"/><path fill="#fff" d="m39.689 110.067 3.417.567a2.9 2.9 0 0 1 1.884 1.182l6.063 8.58a8.54 8.54 0 0 0 5.574 3.498l23.642 3.927c4.754.79 9.278-2.455 10.104-7.247l2.882-16.729c.826-4.793-2.359-9.319-7.114-10.108L62.5 89.809a8.64 8.64 0 0 0-6.435 1.502l-8.6 6.144a2.92 2.92 0 0 1-2.176.508l-3.417-.568" opacity=".32"/><path fill="#001F54" d="m56.653 123.875 23.67 3.941c4.761.792 9.29-2.465 10.117-7.273l1.58-9.189c-.827 4.808-5.356 8.066-10.116 7.273l-23.671-3.94a8.54 8.54 0 0 1-4.332-2.096c-1.907-1.732-3.993-3.255-6.131-4.688l-1.258-.843a7.8 7.8 0 0 0-3.076-1.222l-2.941-.49-.8 4.655 3.422.57c.76.126 1.44.553 1.885 1.186l6.07 8.606a8.55 8.55 0 0 0 5.581 3.51" opacity=".3"/><path fill="#fff" d="m32.981 110.701 2.792-16.247a1.84 1.84 0 0 1 2.105-1.513l2.721.453a1.817 1.817 0 0 1 1.482 2.11l-2.793 16.247a1.84 1.84 0 0 1-2.104 1.514l-2.721-.453a1.817 1.817 0 0 1-1.482-2.111" opacity=".32"/><path fill="#001F54" d="m40.34 111.921 2.744-16.225a2.85 2.85 0 0 0-2.333-3.284l-2.746-.464a2.85 2.85 0 0 0-3.283 2.334l-2.745 16.224a2.85 2.85 0 0 0 2.333 3.284l2.746.465a2.85 2.85 0 0 0 3.283-2.334m-3.621-17.302a.824.824 0 0 1 .948-.674l2.746.465c.448.076.75.501.674.948l-2.745 16.225a.823.823 0 0 1-.948.674l-2.746-.464a.824.824 0 0 1-.674-.949z"/><path fill="#001F54" d="m91.475 120.784 2.816-16.641c.898-5.31-2.691-10.362-8.002-11.26l-23.705-4.01a9.6 9.6 0 0 0-7.195 1.64l-8.59 6.079c-.416.294-.922.41-1.424.324l-3.426-.58a1.012 1.012 0 1 0-.338 1.997l3.427.58a3.91 3.91 0 0 0 2.931-.668l8.59-6.08a7.6 7.6 0 0 1 5.687-1.296l23.705 4.01c4.21.713 7.055 4.717 6.343 8.926l-2.816 16.641c-.712 4.21-4.716 7.055-8.925 6.343l-23.705-4.011a7.6 7.6 0 0 1-4.944-3.095l-6.113-8.566a3.91 3.91 0 0 0-2.548-1.596l-3.427-.58a1.013 1.013 0 0 0-.338 1.997l3.427.58a1.9 1.9 0 0 1 1.238.775l6.112 8.566a9.6 9.6 0 0 0 6.255 3.916l23.705 4.01c5.31.899 10.362-2.69 11.26-8.001"/><path fill="#001F54" d="M84.649 111.072c-.995 5.882-4.707 10.158-8.292 9.551s-5.683-5.865-4.688-11.747 4.707-10.157 8.292-9.55 5.683 5.865 4.688 11.746"/><g fill="#fff"><path d="m76.089 108.209 4.067.414.272-1.25-2.123-.341 1.808-.285.084-.486-1.454-.691 1.777.29.258-1.27-3.797-.574-.3 1.411 1.717.864-2.054.432zM75.942 109.919l3.794.317.262-1.16-3.726-.62zM77.798 112.908l1.238.086.583-2.3q-.96-.142-1.912-.279-.95-.137-1.914-.265l-.248 1.438q.613.036 1.222.078.61.042 1.224.118a6 6 0 0 1-.04.258l-.043.258q-.027.154-.056.303l-.055.304zM74.822 116.141l2.057-1.029 1.748 1.445.446-1.245-1.04-1.037 1.247.161.243-1.142-4.218-.61-.15 1.3 1.256.107-1.459.639z"/></g><path fill="#fff" d="M85.89 109.42c-1.964 3.25-4.782 5.474-8.133 5.423-5.843-.12-6.27-5.066-6.256-8.141-.095-6.4 3.772-17.13-12.382-17.612q-.328-.01-.667-.014l-9.266-7.637c14.916-.26 33.137-6.434 38.992 11.572 1.563 5.15.496 11.807-2.288 16.41z"/><path fill="#fff" d="M88.058 104.294c-.512 1.849-1.247 3.599-2.169 5.126-1.965 3.251-4.782 5.474-8.133 5.424-5.843-.12-6.27-5.066-6.255-8.142-.024-1.6.2-3.471.296-5.386.29-5.74-.564-11.865-12.68-12.225q-.326-.01-.665-.014l-9.266-7.637c14.914-.262 33.136-6.435 38.99 11.57 1.045 3.444.915 7.558-.117 11.283z"/><path fill="#fff" d="M88.058 104.294c-.512 1.849-1.247 3.599-2.17 5.126-1.964 3.253-4.782 5.476-8.133 5.424-5.843-.119-6.268-5.065-6.254-8.14-.024-1.601.2-3.472.295-5.387.291-5.74-.563-11.866-12.679-12.226a36 36 0 0 0-.667-.012l-9.265-7.639c5.52-.098 11.492-1.004 17.124-1.195 6.015-.203 11.641.41 15.91 3.7 2.53 1.95 4.585 4.843 5.958 9.067 1.044 3.444.913 7.556-.119 11.282"/><path fill="#5F5F82" d="M80.487 85.007c-3.435-.082-3.381 1.29-6.16 1.846s-3.92-1.882-5.28-2.284c-1.358-.402-4.893.11-5.341-1.76-.239-.996 1.334-1.96 2.605-2.564 6.015-.203 11.641.41 15.91 3.7.148.611-.204 1.098-1.734 1.062"/><path fill="#fff" d="M86.927 107.439c1.03-4.076.125-11.783-.449-13.825-3.535-12.588-17.436-12.273-22.85-13.231 10.635-.703 20.52.237 24.55 12.629 1.35 4.45.736 10.026-1.251 14.427" opacity=".35"/><path fill="#EFEFEF" d="M85.89 109.42c-1.964 3.25-4.781 5.474-8.133 5.422-5.843-.119-6.269-5.066-6.255-8.14-.096-6.401 3.772-17.13-12.383-17.612 2.776-.777 9.031-1.82 13.205 2.855 4.742 5.311-.267 15.533 3.352 18.754 3.87 3.445 7.94.834 10.214-1.279"/><path fill="#595959" d="M85.889 109.42c-1.965 3.251-4.782 5.474-8.134 5.424-5.842-.12-6.268-5.066-6.254-8.142-.024-1.6.2-3.471.296-5.386.78-.648 1.707-1.192 2.715-1.62-.041 4.469-1.044 9.039 1.163 11.002 3.871 3.446 7.94.835 10.214-1.278"/><path fill="#5F5F82" d="M88.058 104.291c-.512 1.849-1.247 3.599-2.17 5.126-1.964 3.251-4.781 5.474-8.133 5.424-5.842-.12-6.268-5.066-6.254-8.142-.024-1.6.2-3.471.296-5.386 4.851-4.025 15.292-4.025 16.26 2.977z"/><path fill="#001F54" d="M85.89 109.42c-1.964 3.251-4.781 5.474-8.133 5.424-5.842-.12-6.269-5.066-6.254-8.142-.024-1.6.2-3.471.296-5.386.78-.648 1.707-1.192 2.715-1.62-.041 4.469-1.044 9.039 1.163 11.002 3.871 3.446 7.94.835 10.214-1.278" opacity=".2"/><path fill="#EFEFEF" d="M69.345 80.221c-7.942.78-13.365 1.972-18.568 2.53l-1.593-1.313c6.525-.113 13.683-1.36 20.16-1.216"/><path fill="#001F54" d="M49.184 81.44c11.626-.954 28.282-5.978 36.632 4.938 1.453 1.937 2.484 4.117 3.229 6.41 1.635 5.802.571 12.249-2.54 17.379-1.919 3.151-5.33 5.901-9.225 5.557-2.805-.129-5.154-1.68-6.032-4.369-1.508-4.557.25-9.308-.347-13.923-.68-6.418-7.119-7.506-12.451-8.354 2.322-.309 4.725-.257 7.007.333 3.912.973 6.48 3.788 7.01 7.8.35 2.362.122 4.731-.024 7.064-.112 2.886-.445 6.934 2.148 8.794 1.604 1.063 3.987 1.125 5.775.365 1.943-.816 3.466-2.457 4.588-4.243 2.285-3.724 3.312-8.315 2.97-12.67-.163-2.216-.852-4.3-1.812-6.281-3.15-6.68-9.223-9.04-16.275-9.254-6.882-.277-13.763.86-20.653.454"/><path fill="#001F54" d="M81.693 106.454c-.123 2.984-.682 8.378-4.245 9.127l-.18-1.471c2.742-.198 4.01-5.375 4.425-7.656"/><path fill="#5F5F82" d="M36.061 15.502c-2.375-3.114-8.261-3.237-11.154-3.16-7.795.21-8.397-1.303-10.54-.58-1.888.638-2.095 6.551.978 10.55 3.086 4.013 8.741 5.66 15.935 2.54"/><path fill="#001F54" d="M35.766 15.73c-2.7-2.846-8.096-2.688-11.766-2.59-2.188.028-4.412-.093-6.566-.524-1-.176-1.914-.486-2.852-.136-1.153.81-.879 3.792-.574 5.058 1.16 5.25 5.706 8.516 11.02 8.374 2.08-.006 4.175-.451 6.251-1.056-2.808 1.646-6.246 2.6-9.554 2.092-4.711-.634-8.37-4.477-9.232-9.082-.376-1.983-.614-5.046 1.098-6.517 1.188-.835 2.836-.47 4.119-.217 2.057.38 4.152.474 6.274.454 2.17-.036 4.421-.025 6.557.43 1.636.341 3.318.91 4.644 1.991.446.365.853.789 1.17 1.274a.371.371 0 0 1-.589.45"/><path fill="#001F54" d="M16.186 16.28c1.368 2.769 6.78 1.8 9.398 1.608 3.841-.283 5.976 2.234 3.383 5.798 0 0-3.92 2.328-8.702-.584-4.508-2.746-4.08-6.822-4.08-6.822" opacity=".2"/><path fill="#001F54" d="M16.186 16.28c.938 1.343 2.695 1.47 4.203 1.455 1.563-.025 3.12-.268 4.736-.444 1.294-.156 2.723-.078 3.883.624 1.282.705 1.886 2.338 1.368 3.698-.287.838-.806 1.519-1.407 2.073.328-.75.623-1.496.693-2.235.31-2.562-2.417-3.127-4.424-2.9-2.62.177-7.864.809-9.051-2.271"/><path fill="#F9E3D2" d="m65.459 22.744 7.68 2.364 2.542.681c4.061-2.392 5.635-9.469 5.087-13.889-.24-1.952-.891-3.383-1.925-3.668-1.711-.47-3.279 4.013-7.404 6.274-2.303 1.263-5.4 1.836-9.766.47-9.467-2.958 3.785 7.769 3.785 7.769"/><path fill="#fff" d="M64.42 15.62c3.153.78 5.669.422 7.72-.437 3.946-1.65 6.17-5.148 7.849-5.948-.306-.52-.688-.87-1.144-.996-1.711-.472-3.28 4.012-7.405 6.273-1.786.98-4.052 1.545-7.02 1.108" opacity=".5"/><path fill="#E2C3AF" d="m65.459 22.75 7.68 2.363 2.542.681c4.061-2.392 5.635-9.468 5.087-13.888 0 0-1.263 8.613-5.134 6.085-1.928-1.257-2.925-2.414-4.195-3.48-2.303 1.263-5.4 1.837-9.766.47-9.467-2.958 3.785 7.77 3.785 7.77z"/><path fill="#001F54" d="M75.683 26.533a.74.74 0 0 1-.378-1.38c3.868-2.277 5.244-9.288 4.717-13.262-.217-1.641-.744-2.768-1.373-2.942-.38-.104-1.23.912-1.977 1.81-1.894 2.27-4.796 5.75-10.278 5.75-1.455 0-3.091-.244-4.94-.823-1.486-.464-2.149-.5-2.416-.478.332 1.026 3.29 4.038 6.776 6.874l7.545 2.32a.74.74 0 1 1-.435 1.416l-7.82-2.404-.112-.09c-.02-.017-2.033-1.65-3.919-3.45-3.672-3.507-3.805-4.687-3.401-5.44.599-1.12 2.472-.71 4.224-.162 7.867 2.46 11.34-1.706 13.638-4.463 1.232-1.48 2.207-2.647 3.508-2.288 1.27.349 2.14 1.832 2.45 4.175.594 4.485-.963 12.1-5.434 14.734a.74.74 0 0 1-.376.103"/><path fill="#F9E3D2" d="m41.157 20.114-7.808-1.902-2.532-.716c-2.263-4.134.008-11.019 2.74-14.535C34.762 1.407 36.055.511 37.09.795c1.711.471.762 5.126 3.148 9.18 1.332 2.263 3.7 4.342 8.149 5.404 9.646 2.305-7.23 4.734-7.23 4.734"/><path fill="#fff" d="M45.699 14.522c-3.108-.944-5.086-2.54-6.409-4.327-2.545-3.438-2.664-7.58-3.696-9.128.529-.29 1.036-.396 1.492-.27 1.712.471.763 5.126 3.15 9.18 1.032 1.756 2.69 3.401 5.462 4.545" opacity=".5"/><path fill="#E2C3AF" d="m41.157 20.107-7.808-1.902-2.532-.715c-2.263-4.134.008-11.02 2.74-14.535 0 0-3.324 8.044 1.295 7.856 2.3-.094 3.749-.577 5.385-.842 1.332 2.263 3.7 4.342 8.148 5.403 9.647 2.305-7.229 4.735-7.229 4.735"/><path fill="#001F54" d="m41.122 20.867-7.948-1.939a.74.74 0 0 1 .351-1.44l7.669 1.871c4.445-.651 8.529-1.725 9.34-2.436-.218-.154-.806-.464-2.321-.825-8.98-2.145-9.963-8.33-10.55-12.024-.183-1.154-.39-2.461-.772-2.566-.631-.174-1.66.525-2.685 1.822-2.488 3.145-4.894 9.872-2.739 13.808a.74.74 0 1 1-1.3.712c-2.492-4.551.069-11.89 2.876-15.44C34.509.558 36.013-.27 37.284.079c1.302.359 1.54 1.86 1.843 3.762.563 3.545 1.413 8.9 9.43 10.815 1.786.427 3.603 1.033 3.545 2.302-.038.854-.757 1.8-5.707 2.932a74 74 0 0 1-5.132.957z"/><path fill="#fff" d="M35.22 61.623S12.173 44.937 12.213 44.54c.716-7.115 4.877-23.867 17.306-31.533 6.288-3.879 15.392-5.331 24.89-3.3 16.224 3.467 23.545 12.505 26.17 20.031 5.614 16.095.137 39.366-9.386 46.228-.325.233-34.64-13.99-34.64-13.99"/><path fill="#fff" d="M12.214 44.539c-.039.396 23.005 17.083 23.005 17.083l1.333.353s34.319 14.223 34.642 13.99c9.523-6.861 15-30.132 9.386-46.226-2.625-7.529-9.947-16.565-26.17-20.033a41 41 0 0 0-7.59-.904c-6.638-.16-12.716 1.379-17.3 4.205-3.428 2.113-6.224 4.915-8.493 8.017l-.003.002c-5.966 8.15-8.292 18.36-8.81 23.514z"/><path fill="#EAEAEA" d="M12.435 42.78a36 36 0 0 0-.221 1.758c-.04.397 23.004 17.083 23.004 17.083l1.334.353s34.318 14.223 34.642 13.99c9.522-6.861 15-30.131 9.386-46.226a25.8 25.8 0 0 0-3.014-5.965c.374.797.694 1.588.962 2.36 1.145 3.282-4.093 3.253-4.621 7.673 1.89 7.093 6.93 8.363 6.723 11.11-.883 11.756-5.343 23.016-11.488 27.444-.323.232-34.642-13.99-34.642-13.99l-1.333-.353S18.238 47.207 12.434 42.78z"/><path fill="#5F5F82" d="M21.024 21.026c2.534 1.754 6.264 3.195 10.526 3.17 9.49-.055 14.634-8.35 15.271-15.394-6.639-.16-12.717 1.379-17.3 4.205-3.428 2.113-6.224 4.915-8.494 8.017z"/><path fill="#001F54" d="M71.246 76.713c-.48 0-1.63-.453-5.877-2.146a1502 1502 0 0 1-11.899-4.822A4612 4612 0 0 1 36.27 62.66a.74.74 0 0 1-.453-.6.74.74 0 0 1-1.032.162c-.057-.042-5.829-4.22-11.521-8.395a867 867 0 0 1-7.917-5.859c-3.925-2.951-3.922-2.982-3.87-3.503.846-8.396 5.515-24.603 17.654-32.09C35.79 8.27 45.297 7.001 54.564 8.982c7.518 1.606 13.748 4.52 18.516 8.659 4.819 4.182 7.119 8.754 8.2 11.853 2.67 7.654 3.037 17.486 1.008 26.975-1.966 9.19-5.951 16.704-10.661 20.098-.117.084-.203.146-.38.146zM36.552 61.235q.143 0 .284.057c12.626 5.233 31.563 13 34.195 13.87 8.642-6.597 14.515-28.936 8.848-45.18-1.98-5.68-7.944-15.772-25.625-19.551-8.903-1.903-18.005-.705-24.347 3.207-11.486 7.084-16.013 22.419-16.921 30.635 1.81 1.557 14.31 10.698 22.667 16.75a.74.74 0 0 1 .301.515.74.74 0 0 1 .598-.303"/><path fill="#FFD8BE" d="M19.033 38.457c-3.264-.148-9.19 1.024-11.922 6.7-6.903 14.348 8.89 30.565 31.952 34.774 20.221 3.69 32.515-1.388 35.674-8.308 2.484-5.443 1.035-12.108-5.151-17.526 0 0-3.679-3.006-11.094-5.648-5.288-1.883-14.827-3.794-21.153-5.368-5.155-1.282-9.728-3.214-13.091-3.928-2.69-.571-5.215-.695-5.215-.695"/><path fill="#FFB6B8" d="M7.124 59.434c4.268 9.442 16.47 17.67 31.942 20.493 20.22 3.69 32.514-1.386 35.672-8.307a12.65 12.65 0 0 0 1.144-5.758q-.154.401-.334.793c-3.366 7.376-16.47 12.787-38.02 8.855-13.24-2.415-24.23-8.544-30.405-16.076"/><path fill="#001F54" d="M19.034 38.452c-3.81.273-7.69 1.859-9.992 4.981-1.464 2.022-2.323 4.485-2.647 6.95-1.058 9.294 6.225 17.027 13.61 21.605 10.733 6.66 25.19 9.415 37.702 8.067 8.856-1.092 18.756-5.325 17.394-15.885-.574-3.896-2.757-7.269-5.514-10.078 5.6 4.08 8.9 11.381 5.755 18.058-3.147 6.308-10.947 8.651-17.45 9.436-12.904 1.274-27.588-1.465-38.672-8.34C12.444 68.988 6.032 62.6 4.826 54.35c-.532-4.114.43-8.569 3.072-11.825 2.661-3.199 7.078-4.66 11.136-4.074"/><path fill="#fff" d="M74.836 23.056c3.695-1.299 8.682 1.832 11.056 3.486 6.399 4.456 7.733 3.523 9.127 5.305 1.227 1.569-1.848 6.624-6.612 8.277-4.783 1.66-10.413-.071-14.71-6.63"/><path fill="#001F54" d="M74.713 22.707c3.69-1.45 7.959.836 11.027 2.81 2.17 1.473 4.43 2.964 6.833 3.963 1.35.542 3.294 1.313 3.446 3.021.108 3-3.073 6.175-5.505 7.557-4.105 2.405-9.28 1.7-12.827-1.379-1.703-1.449-3.031-3.243-3.99-5.182 1.402 1.645 2.908 3.168 4.643 4.316 4.364 3.038 9.955 2.806 13.808-.945 1.037-1.016 1.996-2.256 2.344-3.65.065-.34.116-.672-.074-.93-.605-.788-1.509-1.016-2.43-1.415a27 27 0 0 1-2.982-1.437c-1.386-.772-2.822-1.734-4.114-2.654-2.546-1.68-5.339-3.411-8.454-3.547-.501-.008-1 .05-1.486.173-.43.11-.657-.516-.24-.7z"/><path fill="#EAEAEA" d="M91.023 34.615c-2.664 1.562-6.655-2.22-8.737-3.82-3.055-2.345-6.221-1.415-6.013 2.988 0 0 1.999 4.099 7.594 4.291 5.275.182 7.156-3.46 7.156-3.46"/><path fill="#001F54" d="M91.022 34.624c-2.679 1.922-6.722-1.488-8.811-3.073-1.551-1.293-4.143-2.319-5.29-.007-.347.655-.51 1.442-.648 2.248-.198-.794-.257-1.647-.037-2.506.323-1.43 1.703-2.448 3.174-2.338 1.355.05 2.591.77 3.588 1.611 1.254 1.035 2.421 2.094 3.713 2.973 1.252.841 2.79 1.7 4.311 1.092"/><path fill="#F48990" d="M24.648 41.195c-.437.24-.767 1.14-.03 1.811.741.674 2.373.754 2.373.754s.104-.864-.425-1.791c-.423-.743-1.375-1.072-1.918-.774M50.487 48.17c.194.46-.107 1.371-1.102 1.44-1 .067-2.327-.884-2.327-.884s.455-.741 1.445-1.14c.794-.32 1.743.015 1.984.585"/><path fill="#4E4E6B" d="M17.102 85.994s-1.898 4.171 1.176 5.088c2.116.63 6.45-.637 7.148-2.821 1.062-3.323-2.228-7.41-2.228-7.41z"/><path fill="#001F54" d="M19.57 91.969c-.551 0-1.062-.063-1.496-.192-.922-.275-1.6-.84-1.961-1.635-.823-1.808.211-4.183.332-4.448a.7.7 0 0 1 .192-.255l6.096-5.143a.725.725 0 0 1 1.034.099c.144.179 3.52 4.433 2.353 8.086-.702 2.197-4.044 3.487-6.55 3.487m-1.866-5.532c-.266.66-.703 2.158-.27 3.106.189.412.534.688 1.055.843 1.863.555 5.718-.688 6.248-2.346.71-2.222-.862-4.943-1.666-6.132z"/><path fill="#5F5F82" d="M4.402 85.495c.86 2.797 4.475 3.074 5.037.672 0 0-2.484-5.562-3.941-5.318-1.458.244-1.096 4.646-1.096 4.646"/><path fill="#001F54" d="M4.4 85.496c.539 1.434 2.463 2.479 3.78 1.535.338-.258.503-.622.535-1.03.1-.983 1.545-.872 1.493.115-.862 3.343-5.278 2.431-5.808-.62"/><path fill="#5F5F82" d="M.873 88.102c2.396-15.566 15.188-16.374 20.56-14.193 3.357 1.364 5.017 2.937 4.654 8.88-.134 2.188-1.182 4.372-6.333 4.849-9.1 2.51-11.412 1.293-13.857-5.255l-2.902.834c-.782 1.6-1.063 4.048-2.122 4.885"/><path fill="#fff" d="M26.028 79.396c-.747-1.966-2.21-2.901-4.317-3.758-5.18-2.104-17-1.533-20.669 11.488 2.772-14.622 15.133-15.352 20.39-13.216 2.603 1.057 4.186 2.24 4.596 5.486" opacity=".35"/><path fill="#001F54" d="M9.59 84.683c-.241 1.479 1.207 2.529 4.455 2.453 2.684-.063 4.527-1.366 5.426-1.272.898.094 3.88-.441 4.768-2.125.6-1.139.57-2.706.26-2.89-.311-.183-3.18 1.751-5.71 2.095-2.495.338-8.752-1.02-9.2 1.739" opacity=".2"/><path fill="#001F54" d="M.156 87.99C1.42 78.91 7.399 72 17.028 72.29c2.683.108 5.434.85 7.568 2.559 1.332 1.082 2.015 2.892 2.188 4.502.154 1.648.224 3.247-.13 4.855-.73 3.011-4.11 4.05-6.824 4.254-1.357.411-4.4 1.119-6.413 1.13-4.77.174-6.62-3.036-7.52-7.209.709 1.27 1.388 2.555 2.259 3.623 1.807 2.377 4.52 2.335 7.253 1.816 1.374-.243 2.75-.612 4.124-.983 1.004-.13 2.025-.253 2.936-.574 1.527-.48 2.641-1.533 2.801-3.112a17.4 17.4 0 0 0 .014-3.617c-.11-.943-.343-1.846-.802-2.58-1.407-2.175-5.02-3.109-7.51-3.19-6.08-.277-11.458 3.14-13.792 8.765-.783 1.796-1.285 3.723-1.59 5.683-.167.935-1.554.735-1.434-.222zM61.22 40.22c.506-4.058-1.932-7.704-5.446-8.143-3.515-.44-6.775 2.495-7.282 6.553-.507 4.059 1.931 7.705 5.446 8.144s6.774-2.495 7.281-6.554"/><path fill="#fff" d="M58.944 38.698c.181-1.45-.6-2.743-1.746-2.886s-2.222.917-2.403 2.367c-.181 1.451.6 2.743 1.746 2.886s2.222-.917 2.403-2.367"/><path fill="#fff" d="M52.942 39.668c.122-.982-.293-1.842-.928-1.922-.634-.079-1.248.653-1.371 1.634-.123.982.292 1.842.927 1.922s1.249-.653 1.371-1.634" opacity=".2"/><path fill="#001F54" d="M32.53 33.27c.508-4.06-1.93-7.705-5.445-8.144-3.514-.44-6.774 2.495-7.281 6.553-.507 4.059 1.93 7.705 5.445 8.144s6.775-2.495 7.282-6.554"/><path fill="#fff" d="M30.256 31.747c.18-1.45-.601-2.743-1.747-2.886s-2.221.917-2.403 2.367c-.18 1.451.601 2.743 1.747 2.886s2.222-.917 2.403-2.367"/><path fill="#fff" d="M24.254 32.717c.123-.982-.293-1.842-.927-1.922s-1.249.653-1.372 1.635c-.122.981.293 1.842.928 1.92.634.08 1.248-.651 1.371-1.633" opacity=".2"/><g fill="#001F54"><path d="M40.247 61.175c1.41 2.332 4.715 3.237 7.063 1.897.743-.429 1.335-1.083 1.744-1.864a.371.371 0 0 1 .673.311c-1.663 4.176-8.085 3.783-9.48-.344"/><path d="M47.815 60.68c1.334-.565 2.8.947 2.17 2.262-.276-.466-.495-.957-.874-1.327-.373-.387-.803-.63-1.296-.934"/></g><path fill="#001F54" d="M13.145 137.804c-1.013.355-1.808 1.13-2.474 1.941-1.558 1.879-2.383 4.862-.576 6.797a6.5 6.5 0 0 0 1.09.935l-.902 1.176c-1.949-1.603-2.726-4.069-1.743-6.403.808-1.94 2.546-3.901 4.605-4.446"/><path fill="#001F54" d="M46.9 164c24.758 0 44.827-2.203 44.827-4.92s-20.07-4.92-44.826-4.92c-24.757 0-44.827 2.203-44.827 4.92S22.144 164 46.901 164" opacity=".1"/></svg>